<svg width="19" height="16" viewBox="0 0 19 16" fill="none" xmlns="http://www.w3.org/2000/svg">
<path d="M1 0.250031C0.5875 0.250031 0.25 0.587531 0.25 1.00003C0.25 1.41253 0.5875 1.75003 1 1.75003H2.66425L4.633 9.62503C4.7995 10.2925 5.398 10.75 6.08575 10.75H15.4375C16.114 10.75 16.6885 10.3015 16.867 9.64828L18.8125 2.50003H17.242L15.4375 9.25003H6.08575L4.117 1.37503C4.03589 1.05201 3.8487 0.765568 3.58543 0.561588C3.32216 0.357607 2.99804 0.247896 2.665 0.250031H1ZM14.5 10.75C13.2662 10.75 12.25 11.7663 12.25 13C12.25 14.2338 13.2662 15.25 14.5 15.25C15.7338 15.25 16.75 14.2338 16.75 13C16.75 11.7663 15.7338 10.75 14.5 10.75ZM7.75 10.75C6.51625 10.75 5.5 11.7663 5.5 13C5.5 14.2338 6.51625 15.25 7.75 15.25C8.98375 15.25 10 14.2338 10 13C10 11.7663 8.98375 10.75 7.75 10.75ZM10 0.250031V2.50003H7.75V4.00003H10V6.25003H11.5V4.00003H13.75V2.50003H11.5V0.250031H10ZM7.75 12.25C8.17225 12.25 8.5 12.5785 8.5 13C8.5 13.4223 8.1715 13.75 7.75 13.75C7.32775 13.75 7 13.4215 7 13C7 12.5778 7.3285 12.25 7.75 12.25ZM14.5 12.25C14.9222 12.25 15.25 12.5785 15.25 13C15.25 13.4223 14.9215 13.75 14.5 13.75C14.0778 13.75 13.75 13.4215 13.75 13C13.75 12.5778 14.0785 12.25 14.5 12.25Z" fill="#0C3A3B"/>
</svg>