<svg width="26" height="27" viewBox="0 0 26 27" fill="none" xmlns="http://www.w3.org/2000/svg">
<path d="M13 0.25C5.99813 0.25 0.25 5.70806 0.25 12.4688C0.25 16.0706 1.91812 19.2709 4.5 21.5V26.4141L9.21537 24.0564C10.4139 24.4176 11.6676 24.6875 13 24.6875C20.0019 24.6875 25.75 19.2294 25.75 12.4688C25.75 5.70806 20.0019 0.25 13 0.25ZM13 2.375C18.9064 2.375 23.625 6.90762 23.625 12.4688C23.625 18.0299 18.9064 22.5625 13 22.5625C11.7303 22.5625 10.518 22.3213 9.38112 21.9314L8.94975 21.7986L6.625 22.9609V20.5703L6.22656 20.2378C3.86887 18.3794 2.375 15.5946 2.375 12.4688C2.375 6.90762 7.09356 2.375 13 2.375Z" fill="white"/>
<path d="M13 2.375C18.9064 2.375 23.625 6.90762 23.625 12.4688C23.625 18.0299 18.9064 22.5625 13 22.5625C11.7303 22.5625 10.518 22.3213 9.38112 21.9314L8.94975 21.7986L6.625 22.9609V20.5703L6.22656 20.2378C3.86887 18.3794 2.375 15.5946 2.375 12.4688C2.375 6.90762 7.09356 2.375 13 2.375Z" fill="white"/>
</svg>
