<svg width="26" height="26" viewBox="0 0 26 26" fill="none" xmlns="http://www.w3.org/2000/svg">
<path d="M13 3.25C7.64563 3.25 3.25 7.42381 3.25 12.5938C3.25 15.3481 4.52562 17.7954 6.5 19.5V23.2578L10.1059 21.4549C11.0224 21.7311 11.9811 21.9375 13 21.9375C18.3544 21.9375 22.75 17.7637 22.75 12.5938C22.75 7.42381 18.3544 3.25 13 3.25ZM13 4.875C17.5167 4.875 21.125 8.34113 21.125 12.5938C21.125 16.8464 17.5167 20.3125 13 20.3125C12.0291 20.3125 11.102 20.1281 10.2326 19.8299L9.90275 19.7283L8.125 20.6172V18.7891L7.82031 18.5347C6.01737 17.1137 4.875 14.9841 4.875 12.5938C4.875 8.34113 8.48331 4.875 13 4.875Z" fill="white"/>
</svg>
