<svg width="18" height="30" viewBox="0 0 18 30" fill="none" xmlns="http://www.w3.org/2000/svg">
<path d="M8.70562 0.9375C8.72437 1.125 8.73375 1.3125 8.73375 1.5C8.73469 6.72937 0.5625 10.2375 0.5625 16.7391C0.5625 19.5619 2.89312 21.4509 4.79437 23.1075C8.415 25.7531 9.13406 26.9381 9.13406 27.8025C9.13406 28.3753 9 28.7606 9 29.0625C9.72 28.1147 9.80344 27.2569 9.81281 26.4347C9.81281 24.7575 8.63344 23.2388 7.38281 21.5203C6.49312 20.2594 5.03438 19.1044 5.03438 17.5828C5.03438 13.3959 10.875 10.6359 10.875 6.06281C10.875 3.39562 8.985 1.0725 8.70562 0.9375ZM12.1641 8.4375L12.3891 8.84438C12.5212 9.135 12.5812 9.4575 12.5812 9.81C12.5812 12.3356 9.31688 16.0969 9.17438 16.4081C9.05156 16.6988 9 17.0109 9 17.3016C9 18.4453 9.85406 19.6912 10.0069 19.6912C10.14 19.6912 13.2038 16.5525 13.2956 14.7234C13.6519 15.3891 13.8047 16.0022 13.8047 16.6153C13.8047 18.9431 11.4422 22.1006 11.4422 22.1006C11.4422 22.755 13.2441 25.1034 13.4484 25.1034C13.5084 25.1034 13.5797 25.0322 13.6303 24.9703C15.7781 22.7466 17.4375 20.1591 17.4375 17.2284C17.4361 16.7615 17.3953 16.2954 17.3156 15.8353C16.6313 12.0638 13.1006 8.80125 12.1641 8.4375Z" fill="#FF0000"/>
</svg>
