<svg width="23" height="22" viewBox="0 0 23 22" fill="none" xmlns="http://www.w3.org/2000/svg">
<path d="M8.03494 0.291504C6.52091 0.291504 5.27379 1.53862 5.27379 3.05265C5.27379 3.37663 5.3419 3.68219 5.44682 3.97303H0.671875V9.49533H1.59226V21.4603H21.8407V9.49533H22.7611V3.97303H17.9861C18.0967 3.67858 18.1552 3.36715 18.1591 3.05265C18.1591 1.53862 16.912 0.291504 15.398 0.291504C13.7873 0.291504 12.6939 1.51377 11.9751 2.5354C11.8785 2.67161 11.803 2.80415 11.7165 2.9376C11.63 2.80415 11.5545 2.67069 11.4578 2.53448C10.739 1.51469 9.64561 0.291504 8.03494 0.291504ZM8.03494 2.13227C8.61018 2.13227 9.35845 2.75077 9.93369 3.57083C10.0736 3.77147 10.0515 3.78252 10.1638 3.97303H8.03494C7.514 3.97303 7.11455 3.57359 7.11455 3.05265C7.11455 2.53172 7.514 2.13227 8.03494 2.13227ZM15.398 2.13227C15.9189 2.13227 16.3184 2.53172 16.3184 3.05265C16.3184 3.57359 15.9189 3.97303 15.398 3.97303H13.2692C13.3814 3.78252 13.3594 3.77147 13.4992 3.56991C14.0754 2.75169 14.8228 2.13227 15.398 2.13227ZM2.51264 5.8138H20.9203V7.65457H12.6369V6.73418H10.7961V7.65457H2.51264V5.8138ZM3.43302 9.49533H19.9999V19.6195H12.6369V10.4157H10.7961V19.6195H3.43302V9.49533Z" fill="#00D78A"/>
</svg>
