<svg width="22" height="20" viewBox="0 0 22 20" fill="none" xmlns="http://www.w3.org/2000/svg">
<path d="M10.3892 18.3519L10.3893 18.352L10.9285 18.8912L10.9992 18.9619L11.07 18.8912L11.6092 18.352L11.6093 18.3519L19.7162 10.221L19.7197 10.2178L19.736 10.203C19.7501 10.19 19.7706 10.1709 19.7965 10.146C19.8483 10.096 19.9219 10.0226 20.0101 9.92795C20.1864 9.7387 20.4213 9.46391 20.6562 9.12113C21.1251 8.43707 21.6 7.4739 21.6 6.375C21.6 3.24661 19.0333 0.65 15.875 0.65C13.3488 0.65 11.6929 2.11691 11 2.81129C10.3071 2.11691 8.65122 0.65 6.125 0.65C2.96668 0.65 0.4 3.24661 0.4 6.375C0.4 7.47702 0.898929 8.42569 1.35442 9.10291C1.62412 9.50599 1.93476 9.88012 2.28139 10.2193C2.28153 10.2195 2.28167 10.2196 2.28182 10.2197L10.3892 18.3519ZM11.0748 5.12893L11.636 4.49728L11.6362 4.49712L11.6404 4.49276L11.6576 4.47519C11.6728 4.45966 11.6957 4.43671 11.7258 4.40739C11.7858 4.34874 11.8744 4.26465 11.9877 4.1636C12.2146 3.96141 12.5401 3.6918 12.9348 3.42234C13.7268 2.88151 14.7845 2.35 15.875 2.35C18.1016 2.35 19.9 4.17677 19.9 6.375C19.9 6.64549 19.8174 6.94597 19.6883 7.24879C19.5595 7.55068 19.3871 7.84896 19.2133 8.11343C19.0397 8.37765 18.8659 8.6064 18.7354 8.76914C18.6703 8.85046 18.616 8.91515 18.5782 8.9594C18.5593 8.98152 18.5444 8.99852 18.5344 9.00992L18.5231 9.02276L18.5211 9.025L11 16.5461L3.47696 9.02304L3.47697 9.02303L3.47555 9.02166L3.47554 9.02165L3.47553 9.02164L3.47542 9.02153L3.47479 9.02093L3.472 9.0182L3.46052 9.00686C3.45033 8.99671 3.43519 8.98144 3.41582 8.96136C3.37706 8.92118 3.32138 8.86178 3.25439 8.78557C3.12033 8.63306 2.94147 8.41377 2.76255 8.14704L2.76253 8.14702C2.40368 7.61245 2.1 6.92609 2.1 6.375C2.1 4.17677 3.89844 2.35 6.125 2.35C7.21547 2.35 8.27316 2.88151 9.06524 3.42234C9.45988 3.6918 9.78545 3.96141 10.0123 4.1636C10.1256 4.26465 10.2142 4.34874 10.2742 4.40739C10.3043 4.43671 10.3272 4.45966 10.3424 4.47519L10.3596 4.49276L10.3638 4.49712L10.364 4.49728L10.9252 5.12893L11 5.21305L11.0748 5.12893Z" fill="white" stroke="white" stroke-width="0.2"/>
</svg>
