<svg width="217" height="281" viewBox="0 0 217 281" fill="none" xmlns="http://www.w3.org/2000/svg">
<path d="M108.5 1.46875C79.6778 1.46875 54.9347 17.9845 41.9055 41.5502C38.9326 46.9272 41.7956 53.3771 47.402 55.6574C53.1562 57.9978 59.566 55.088 62.7974 49.9139C72.4854 34.4015 89.3715 23.7812 108.5 23.7812C137.571 23.7812 161.281 47.4913 161.281 76.5625V96.5312C161.281 102.883 156.133 108.031 149.781 108.031H13.9375C7.03394 108.031 1.4375 113.628 1.4375 120.531V267.031C1.4375 273.935 7.03394 279.531 13.9375 279.531H203.062C209.966 279.531 215.562 273.935 215.562 267.031V120.531C215.562 113.628 209.966 108.031 203.062 108.031H195.094C188.742 108.031 183.594 102.883 183.594 96.5312V76.5625C183.594 35.3237 149.739 1.46875 108.5 1.46875ZM23.75 141.844C23.75 135.492 28.8987 130.344 35.25 130.344H181.75C188.101 130.344 193.25 135.492 193.25 141.844V245.719C193.25 252.07 188.101 257.219 181.75 257.219H35.25C28.8987 257.219 23.75 252.07 23.75 245.719V141.844Z" fill="#021A07" stroke="black"/>
</svg>
