<svg width="38" height="38" viewBox="0 0 38 38" fill="none" xmlns="http://www.w3.org/2000/svg">
<path d="M22.9422 15.2007H26.9095C27.0955 15.2005 27.2737 15.1265 27.4051 14.9949L33.9429 8.45837C34.0081 8.39324 34.0598 8.31589 34.0951 8.23074C34.1304 8.1456 34.1486 8.05434 34.1486 7.96217C34.1486 7.87 34.1304 7.77874 34.0951 7.69359C34.0598 7.60845 34.0081 7.5311 33.9429 7.46596L29.9756 3.49867C29.9105 3.43346 29.8331 3.38173 29.748 3.34643C29.6628 3.31114 29.5716 3.29297 29.4794 3.29297C29.3872 3.29297 29.296 3.31114 29.2108 3.34643C29.1257 3.38173 29.0483 3.43346 28.9832 3.49867L22.4466 10.0364C22.315 10.1678 22.241 10.3461 22.2409 10.532V14.4993C22.2409 14.6853 22.3148 14.8637 22.4463 14.9953C22.5778 15.1268 22.7562 15.2007 22.9422 15.2007Z" fill="#4EFF97"/>
<path d="M14.5258 22.2141H10.5585C10.3725 22.2143 10.1943 22.2883 10.0629 22.4198L3.52511 28.9564C3.4599 29.0216 3.40817 29.0989 3.37287 29.184C3.33758 29.2692 3.31941 29.3605 3.31941 29.4526C3.31941 29.5448 3.33758 29.6361 3.37287 29.7212C3.40817 29.8063 3.4599 29.8837 3.52511 29.9488L7.49241 33.9161C7.55754 33.9813 7.63489 34.0331 7.72004 34.0684C7.80518 34.1037 7.89644 34.1218 7.98861 34.1218C8.08078 34.1218 8.17204 34.1037 8.25719 34.0684C8.34233 34.0331 8.41968 33.9813 8.48482 33.9161L15.0214 27.3784C15.153 27.247 15.227 27.0687 15.2271 26.8828V22.9155C15.2271 22.7295 15.1532 22.5511 15.0217 22.4195C14.8902 22.288 14.7118 22.2141 14.5258 22.2141Z" fill="#4EFF97"/>
<path d="M15.2271 14.4993V10.532C15.227 10.3461 15.153 10.1678 15.0214 10.0364L8.48482 3.49867C8.41968 3.43346 8.34233 3.38173 8.25719 3.34643C8.17204 3.31114 8.08078 3.29297 7.98861 3.29297C7.89644 3.29297 7.80518 3.31114 7.72004 3.34643C7.63489 3.38173 7.55754 3.43346 7.49241 3.49867L3.52511 7.46596C3.4599 7.5311 3.40817 7.60845 3.37287 7.69359C3.33758 7.77874 3.31941 7.87 3.31941 7.96217C3.31941 8.05434 3.33758 8.1456 3.37287 8.23074C3.40817 8.31589 3.4599 8.39324 3.52511 8.45837L10.0629 14.9949C10.1943 15.1265 10.3725 15.2005 10.5585 15.2007H14.5258C14.7118 15.2007 14.8902 15.1268 15.0217 14.9953C15.1532 14.8637 15.2271 14.6853 15.2271 14.4993Z" fill="#4EFF97"/>
<path d="M22.2409 22.9155V26.8828C22.241 27.0687 22.315 27.247 22.4466 27.3784L28.9832 33.9161C29.0483 33.9813 29.1257 34.0331 29.2108 34.0684C29.296 34.1037 29.3872 34.1218 29.4794 34.1218C29.5716 34.1218 29.6628 34.1037 29.748 34.0684C29.8331 34.0331 29.9105 33.9813 29.9756 33.9161L33.9429 29.9488C34.0081 29.8837 34.0598 29.8063 34.0951 29.7212C34.1304 29.6361 34.1486 29.5448 34.1486 29.4526C34.1486 29.3605 34.1304 29.2692 34.0951 29.184C34.0598 29.0989 34.0081 29.0216 33.9429 28.9564L27.4051 22.4198C27.2737 22.2883 27.0955 22.2143 26.9095 22.2141H22.9422C22.7562 22.2141 22.5778 22.288 22.4463 22.4195C22.3148 22.5511 22.2409 22.7295 22.2409 22.9155Z" fill="#4EFF97"/>
<path d="M21.5392 0.00439453H15.9284C15.5411 0.00439453 15.2271 0.318399 15.2271 0.705743V6.31654C15.2271 6.70388 15.5411 7.01788 15.9284 7.01788H21.5392C21.9265 7.01788 22.2405 6.70388 22.2405 6.31654V0.705743C22.2405 0.318399 21.9265 0.00439453 21.5392 0.00439453Z" fill="#4EFF97"/>
<path d="M36.7353 15.2007H31.1245C30.7372 15.2007 30.4232 15.5147 30.4232 15.902V21.5128C30.4232 21.9002 30.7372 22.2142 31.1245 22.2142H36.7353C37.1226 22.2142 37.4366 21.9002 37.4366 21.5128V15.902C37.4366 15.5147 37.1226 15.2007 36.7353 15.2007Z" fill="#4EFF97"/>
<path d="M6.34336 15.2007H0.732568C0.345224 15.2007 0.0312195 15.5147 0.0312195 15.902V21.5128C0.0312195 21.9002 0.345224 22.2142 0.732568 22.2142H6.34336C6.7307 22.2142 7.04471 21.9002 7.04471 21.5128V15.902C7.04471 15.5147 6.7307 15.2007 6.34336 15.2007Z" fill="#4EFF97"/>
<path d="M21.5392 30.397H15.9284C15.5411 30.397 15.2271 30.711 15.2271 31.0983V36.7091C15.2271 37.0965 15.5411 37.4105 15.9284 37.4105H21.5392C21.9265 37.4105 22.2405 37.0965 22.2405 36.7091V31.0983C22.2405 30.711 21.9265 30.397 21.5392 30.397Z" fill="#4EFF97"/>
</svg>
