<svg width="222" height="84" viewBox="0 0 222 84" fill="none" xmlns="http://www.w3.org/2000/svg">
<path d="M221.664 54.6251L217.921 54.8553C217.858 54.5355 217.718 54.2474 217.509 53.9915C217.298 53.729 217.017 53.521 216.674 53.3674C216.333 53.2073 215.928 53.1274 215.453 53.1274C214.821 53.1274 214.284 53.2617 213.851 53.5305C213.415 53.793 213.198 54.1451 213.198 54.5865C213.198 54.9386 213.338 55.2362 213.621 55.4794C213.901 55.7226 214.385 55.9179 215.069 56.0652L217.739 56.6028C219.172 56.8972 220.242 57.3707 220.945 58.0235C221.648 58.6764 222 59.5342 222 60.5965C222 61.5629 221.717 62.4111 221.146 63.1406C220.583 63.8702 219.809 64.4401 218.823 64.8495C217.845 65.2529 216.714 65.4543 215.434 65.4543C213.483 65.4543 211.927 65.048 210.769 64.2352C209.616 63.4158 208.942 62.3022 208.744 60.8941L212.764 60.6829C212.886 61.2782 213.182 61.7326 213.65 62.0463C214.115 62.3535 214.715 62.5071 215.445 62.5071C216.161 62.5071 216.737 62.3693 217.171 62.0942C217.615 61.8127 217.837 61.4511 217.845 61.0094C217.837 60.6383 217.681 60.334 217.374 60.0972C217.068 59.854 216.592 59.6684 215.952 59.5405L213.399 59.0317C211.958 58.7436 210.888 58.2445 210.182 57.534C209.484 56.8235 209.135 55.9179 209.135 54.817C209.135 53.8699 209.392 53.0537 209.904 52.3688C210.423 51.6842 211.149 51.1561 212.083 50.7847C213.024 50.4136 214.126 50.228 215.387 50.228C217.25 50.228 218.714 50.6216 219.782 51.4088C220.858 52.1962 221.485 53.268 221.664 54.6251Z" fill="white"/>
<path d="M197.208 56.6411V65.1664H193.118V50.4199H197.015V53.0217H197.189C197.515 52.1642 198.062 51.4857 198.831 50.9864C199.597 50.4807 200.53 50.228 201.625 50.228C202.648 50.228 203.541 50.4519 204.302 50.8999C205.064 51.348 205.656 51.9882 206.079 52.82C206.502 53.6458 206.713 54.6314 206.713 55.777V65.1664H202.621V56.5068C202.629 55.6042 202.399 54.9003 201.931 54.3946C201.464 53.8826 200.821 53.6265 200.002 53.6265C199.452 53.6265 198.966 53.7449 198.543 53.9817C198.125 54.2186 197.8 54.5643 197.562 55.0187C197.332 55.4667 197.213 56.0075 197.208 56.6411Z" fill="white"/>
<path d="M183.742 65.4543C182.251 65.4543 180.961 65.1376 179.873 64.504C178.792 63.8638 177.956 62.9744 177.368 61.8351C176.779 60.6893 176.484 59.3613 176.484 57.8507C176.484 56.3276 176.779 54.9962 177.368 53.857C177.956 52.7114 178.792 51.8216 179.873 51.1881C180.961 50.5481 182.251 50.228 183.742 50.228C185.233 50.228 186.52 50.5481 187.602 51.1881C188.69 51.8216 189.528 52.7114 190.117 53.857C190.706 54.9962 191 56.3276 191 57.8507C191 59.3613 190.706 60.6893 190.117 61.8351C189.528 62.9744 188.69 63.8638 187.602 64.504C186.52 65.1376 185.233 65.4543 183.742 65.4543ZM183.761 62.2863C184.44 62.2863 185.006 62.0942 185.461 61.7101C185.915 61.3197 186.258 60.7887 186.488 60.1165C186.725 59.4446 186.843 58.6796 186.843 57.8219C186.843 56.9644 186.725 56.1994 186.488 55.5275C186.258 54.8553 185.915 54.3243 185.461 53.9339C185.006 53.5435 184.44 53.3481 183.761 53.3481C183.077 53.3481 182.501 53.5435 182.033 53.9339C181.572 54.3243 181.224 54.8553 180.987 55.5275C180.757 56.1994 180.641 56.9644 180.641 57.8219C180.641 58.6796 180.757 59.4446 180.987 60.1165C181.224 60.7887 181.572 61.3197 182.033 61.7101C182.501 62.0942 183.077 62.2863 183.761 62.2863Z" fill="white"/>
<path d="M170.251 65.1693V50.4228H174.341V65.1693H170.251ZM172.305 48.522C171.697 48.522 171.176 48.3204 170.741 47.9173C170.312 47.5076 170.097 47.018 170.097 46.4484C170.097 45.8851 170.312 45.4019 170.741 44.9986C171.176 44.5891 171.697 44.3843 172.305 44.3843C172.914 44.3843 173.432 44.5891 173.861 44.9986C174.296 45.4019 174.514 45.8851 174.514 46.4484C174.514 47.018 174.296 47.5076 173.861 47.9173C173.432 48.3204 172.914 48.522 172.305 48.522Z" fill="white"/>
<path d="M168.134 50.4231V53.4954H159.254V50.4231H168.134ZM161.27 46.8901H165.36V60.638C165.36 61.0157 165.417 61.3102 165.533 61.5214C165.648 61.7263 165.808 61.8703 166.013 61.9533C166.224 62.0366 166.467 62.0781 166.742 62.0781C166.934 62.0781 167.126 62.0622 167.318 62.0302C167.51 61.9919 167.658 61.9631 167.76 61.9438L168.403 64.9873C168.198 65.0512 167.91 65.1247 167.539 65.208C167.168 65.2976 166.717 65.352 166.185 65.3711C165.2 65.4097 164.336 65.2783 163.593 64.9775C162.857 64.6767 162.284 64.2096 161.875 63.5757C161.465 62.9422 161.263 62.1423 161.27 61.1757V46.8901Z" fill="white"/>
<path d="M153.47 58.8871V50.4194H157.56V65.1659H153.633V62.4873H153.48C153.147 63.3513 152.593 64.046 151.819 64.5707C151.051 65.0956 150.113 65.3578 149.006 65.3578C148.02 65.3578 147.153 65.134 146.404 64.6859C145.655 64.2379 145.07 63.6011 144.647 62.7754C144.231 61.9499 144.02 60.9608 144.014 59.8088V50.4194H148.103V59.0793C148.11 59.9497 148.343 60.6378 148.804 61.1434C149.265 61.6488 149.883 61.9018 150.657 61.9018C151.15 61.9018 151.611 61.7897 152.04 61.5658C152.468 61.3353 152.814 60.9962 153.076 60.5482C153.345 60.1001 153.477 59.5464 153.47 58.8871Z" fill="white"/>
<path d="M141.274 45.502V65.1639H137.184V45.502H141.274Z" fill="white"/>
<path d="M127.807 65.4543C126.315 65.4543 125.026 65.1376 123.938 64.504C122.856 63.8638 122.021 62.9744 121.432 61.8351C120.843 60.6893 120.549 59.3613 120.549 57.8507C120.549 56.3276 120.843 54.9962 121.432 53.857C122.021 52.7114 122.856 51.8216 123.938 51.1881C125.026 50.5481 126.315 50.228 127.807 50.228C129.298 50.228 130.584 50.5481 131.666 51.1881C132.754 51.8216 133.592 52.7114 134.181 53.857C134.77 54.9962 135.065 56.3276 135.065 57.8507C135.065 59.3613 134.77 60.6893 134.181 61.8351C133.592 62.9744 132.754 63.8638 131.666 64.504C130.584 65.1376 129.298 65.4543 127.807 65.4543ZM127.826 62.2863C128.504 62.2863 129.071 62.0942 129.525 61.7101C129.98 61.3197 130.322 60.7887 130.552 60.1165C130.789 59.4446 130.908 58.6796 130.908 57.8219C130.908 56.9644 130.789 56.1994 130.552 55.5275C130.322 54.8553 129.98 54.3243 129.525 53.9339C129.071 53.5435 128.504 53.3481 127.826 53.3481C127.141 53.3481 126.565 53.5435 126.098 53.9339C125.637 54.3243 125.288 54.8553 125.051 55.5275C124.821 56.1994 124.706 56.9644 124.706 57.8219C124.706 58.6796 124.821 59.4446 125.051 60.1165C125.288 60.7887 125.637 61.3197 126.098 61.7101C126.565 62.0942 127.141 62.2863 127.826 62.2863Z" fill="white"/>
<path d="M114.715 51.1609C114.638 50.3864 114.308 49.7848 113.726 49.356C113.143 48.927 112.353 48.7127 111.354 48.7127C110.676 48.7127 110.103 48.8086 109.636 49.0008C109.169 49.1863 108.81 49.4456 108.561 49.7784C108.317 50.1112 108.196 50.4889 108.196 50.9113C108.183 51.2632 108.257 51.5706 108.417 51.8328C108.583 52.0953 108.81 52.3226 109.098 52.5145C109.386 52.7 109.719 52.8634 110.097 53.0043C110.474 53.1386 110.878 53.2538 111.306 53.3497L113.073 53.7721C113.931 53.9643 114.718 54.2202 115.435 54.5403C116.151 54.8604 116.772 55.254 117.297 55.721C117.822 56.1883 118.228 56.7387 118.516 57.3723C118.811 58.0061 118.961 58.7325 118.968 59.5516C118.961 60.7549 118.654 61.7982 118.046 62.6815C117.444 63.5583 116.574 64.24 115.435 64.7264C114.302 65.2064 112.935 65.4464 111.335 65.4464C109.748 65.4464 108.365 65.2032 107.188 64.7168C106.017 64.2302 105.101 63.5102 104.442 62.5568C103.789 61.5967 103.447 60.4094 103.415 58.995H107.437C107.482 59.6542 107.671 60.2045 108.004 60.6462C108.343 61.0813 108.794 61.4109 109.357 61.6351C109.927 61.8526 110.57 61.9615 111.287 61.9615C111.991 61.9615 112.603 61.8589 113.121 61.6541C113.646 61.4495 114.052 61.1646 114.34 60.7998C114.628 60.435 114.772 60.0158 114.772 59.5421C114.772 59.1004 114.641 58.7293 114.379 58.4285C114.122 58.1277 113.745 57.8716 113.246 57.6604C112.753 57.4492 112.148 57.2573 111.431 57.0844L109.29 56.5468C107.633 56.1434 106.324 55.513 105.364 54.6555C104.404 53.7978 103.927 52.6424 103.933 51.1897C103.927 49.9991 104.244 48.959 104.884 48.0696C105.53 47.1798 106.417 46.4854 107.543 45.9861C108.669 45.4868 109.95 45.2373 111.383 45.2373C112.843 45.2373 114.116 45.4868 115.204 45.9861C116.299 46.4854 117.15 47.1798 117.758 48.0696C118.366 48.959 118.679 49.9896 118.699 51.1609H114.715Z" fill="white"/>
<path d="M191.65 29.411V37.9363H187.56V18.2744H191.535V25.7916H191.708C192.041 24.9212 192.578 24.2395 193.321 23.7468C194.063 23.2475 194.995 22.9979 196.115 22.9979C197.137 22.9979 198.031 23.2218 198.792 23.6698C199.561 24.1115 200.156 24.7483 200.579 25.5804C201.007 26.4061 201.219 27.395 201.213 28.5469V37.9363H197.122V29.2767C197.13 28.3677 196.9 27.6606 196.432 27.155C195.97 26.6493 195.324 26.3964 194.492 26.3964C193.935 26.3964 193.442 26.5148 193.014 26.7516C192.591 26.9885 192.258 27.3342 192.015 27.7886C191.778 28.2366 191.657 28.7774 191.65 29.411Z" fill="white"/>
<path d="M178.897 38.2268C177.386 38.2268 176.087 37.9069 174.999 37.2667C173.917 36.6204 173.085 35.7244 172.503 34.5788C171.927 33.4329 171.639 32.1145 171.639 30.6231C171.639 29.1128 171.93 27.788 172.512 26.6487C173.101 25.5029 173.936 24.6102 175.018 23.97C176.1 23.3238 177.386 23.0005 178.877 23.0005C180.164 23.0005 181.29 23.2342 182.257 23.7012C183.223 24.1685 183.988 24.8246 184.551 25.6694C185.115 26.5142 185.425 27.5062 185.482 28.6454H181.623C181.514 27.9096 181.226 27.3175 180.759 26.8694C180.298 26.4151 179.693 26.1877 178.945 26.1877C178.311 26.1877 177.757 26.3606 177.284 26.7063C176.817 27.0455 176.452 27.5416 176.189 28.1942C175.927 28.8471 175.796 29.6377 175.796 30.5658C175.796 31.5065 175.924 32.3066 176.18 32.9659C176.442 33.6251 176.81 34.1273 177.284 34.473C177.757 34.8188 178.311 34.9914 178.945 34.9914C179.412 34.9914 179.831 34.8954 180.202 34.7035C180.58 34.5114 180.89 34.233 181.134 33.8683C181.383 33.4969 181.546 33.0523 181.623 32.5337H185.482C185.419 33.6602 185.111 34.6523 184.561 35.51C184.017 36.3611 183.265 37.0267 182.305 37.5067C181.345 37.9867 180.209 38.2268 178.897 38.2268Z" fill="white"/>
<path d="M163.337 38.2268C161.821 38.2268 160.515 37.9196 159.42 37.3053C158.332 36.6844 157.494 35.8076 156.905 34.6747C156.316 33.5355 156.022 32.1882 156.022 30.6329C156.022 29.1159 156.316 27.7848 156.905 26.6389C157.494 25.4933 158.323 24.6005 159.392 23.9605C160.467 23.3206 161.728 23.0005 163.174 23.0005C164.147 23.0005 165.053 23.1572 165.891 23.471C166.736 23.7781 167.472 24.242 168.099 24.8629C168.733 25.4838 169.226 26.2647 169.578 27.2054C169.93 28.14 170.106 29.2344 170.106 30.4889V31.612H157.654V29.0776H166.256C166.256 28.4887 166.128 27.9672 165.872 27.5128C165.616 27.0582 165.261 26.7032 164.806 26.447C164.358 26.1846 163.837 26.0535 163.241 26.0535C162.62 26.0535 162.07 26.1975 161.59 26.4854C161.116 26.7671 160.745 27.1478 160.476 27.6278C160.208 28.1015 160.07 28.6296 160.064 29.2119V31.6218C160.064 32.3513 160.198 32.9817 160.467 33.513C160.742 34.0443 161.129 34.4538 161.628 34.7419C162.128 35.03 162.72 35.1738 163.405 35.1738C163.859 35.1738 164.275 35.1098 164.653 34.9819C165.03 34.8539 165.354 34.6618 165.622 34.4059C165.891 34.1498 166.096 33.8363 166.237 33.4649L170.019 33.7147C169.827 34.6235 169.434 35.4172 168.838 36.0955C168.249 36.7677 167.488 37.2924 166.554 37.6701C165.626 38.0412 164.553 38.2268 163.337 38.2268Z" fill="white"/>
<path d="M154.651 23.1932V26.2654H145.771V23.1932H154.651ZM147.787 19.6602H151.877V33.408C151.877 33.7858 151.934 34.0802 152.049 34.2914C152.165 34.4963 152.325 34.6403 152.529 34.7233C152.741 34.8066 152.984 34.8481 153.259 34.8481C153.451 34.8481 153.643 34.8322 153.835 34.8003C154.027 34.7619 154.174 34.7331 154.277 34.7138L154.92 37.7573C154.715 37.8212 154.427 37.8947 154.056 37.978C153.685 38.0676 153.234 38.122 152.702 38.1411C151.717 38.1797 150.852 38.0483 150.11 37.7475C149.374 37.4467 148.801 36.9796 148.392 36.3458C147.982 35.7122 147.78 34.9123 147.787 33.9457V19.6602Z" fill="white"/>
<path d="M137.432 38.2268C135.941 38.2268 134.652 37.9101 133.564 37.2765C132.482 36.6363 131.647 35.7468 131.058 34.6076C130.469 33.4617 130.175 32.1338 130.175 30.6231C130.175 29.1001 130.469 27.7687 131.058 26.6294C131.647 25.4838 132.482 24.5941 133.564 23.9605C134.652 23.3206 135.941 23.0005 137.432 23.0005C138.924 23.0005 140.21 23.3206 141.292 23.9605C142.38 24.5941 143.219 25.4838 143.807 26.6294C144.396 27.7687 144.691 29.1001 144.691 30.6231C144.691 32.1338 144.396 33.4617 143.807 34.6076C143.219 35.7468 142.38 36.6363 141.292 37.2765C140.21 37.9101 138.924 38.2268 137.432 38.2268ZM137.452 35.0588C138.13 35.0588 138.697 34.8666 139.151 34.4826C139.606 34.0922 139.948 33.5611 140.178 32.8889C140.415 32.217 140.534 31.4521 140.534 30.5943C140.534 29.7368 140.415 28.9719 140.178 28.3C139.948 27.6278 139.606 27.0968 139.151 26.7063C138.697 26.3159 138.13 26.1206 137.452 26.1206C136.767 26.1206 136.191 26.3159 135.724 26.7063C135.263 27.0968 134.914 27.6278 134.677 28.3C134.447 28.9719 134.332 29.7368 134.332 30.5943C134.332 31.4521 134.447 32.217 134.677 32.8889C134.914 33.5611 135.263 34.0922 135.724 34.4826C136.191 34.8666 136.767 35.0588 137.452 35.0588Z" fill="white"/>
<path d="M120.935 37.9431V23.1966H124.9V25.7695H125.053C125.322 24.8544 125.773 24.1629 126.407 23.6959C127.041 23.2222 127.77 22.9854 128.596 22.9854C128.801 22.9854 129.022 22.9983 129.258 23.0237C129.495 23.0493 129.703 23.0845 129.882 23.1294V26.7583C129.69 26.7007 129.425 26.6494 129.086 26.6048C128.746 26.5601 128.436 26.5376 128.154 26.5376C127.553 26.5376 127.015 26.6687 126.541 26.9312C126.074 27.1871 125.703 27.5455 125.428 28.0065C125.159 28.4672 125.025 28.9985 125.025 29.6001V37.9431H120.935Z" fill="white"/>
<path d="M104.049 37.9363V18.2744H111.806C113.298 18.2744 114.568 18.5594 115.618 19.129C116.668 19.6923 117.467 20.4762 118.018 21.481C118.575 22.4796 118.853 23.6315 118.853 24.9373C118.853 26.2428 118.572 27.395 118.008 28.3934C117.445 29.392 116.629 30.1696 115.56 30.7263C114.498 31.2832 113.211 31.5616 111.701 31.5616H106.757V28.2303H111.029C111.829 28.2303 112.488 28.0926 113.006 27.8174C113.531 27.5359 113.922 27.1486 114.178 26.6557C114.44 26.1564 114.571 25.5836 114.571 24.9373C114.571 24.2844 114.44 23.7148 114.178 23.2284C113.922 22.7355 113.531 22.3548 113.006 22.086C112.482 21.8106 111.816 21.6731 111.01 21.6731H108.206V37.9363H104.049Z" fill="white"/>
<mask id="mask0_1670_7103" style="mask-type:luminance" maskUnits="userSpaceOnUse" x="0" y="0" width="84" height="84">
<path d="M83.5272 0.472656H0V83.9998H83.5272V0.472656Z" fill="white"/>
</mask>
<g mask="url(#mask0_1670_7103)">
<path d="M48.0337 0.472656H35.4951C34.5911 0.472656 33.8582 1.20563 33.8582 2.10963V14.648C33.8582 15.5522 34.5911 16.2852 35.4951 16.2852H48.0337C48.9377 16.2852 49.6707 15.5522 49.6707 14.648V2.10963C49.6707 1.20563 48.9377 0.472656 48.0337 0.472656Z" fill="#4EFF97"/>
<path d="M48.0337 68.187H35.4951C34.5911 68.187 33.8582 68.92 33.8582 69.824V82.3623C33.8582 83.2666 34.5911 83.9996 35.4951 83.9996H48.0337C48.9377 83.9996 49.6707 83.2666 49.6707 82.3623V69.824C49.6707 68.92 48.9377 68.187 48.0337 68.187Z" fill="#4EFF97"/>
<path d="M14.1756 34.3291H1.63724C0.732977 34.3291 0 35.0618 0 35.9661V48.5044C0 49.4087 0.732977 50.1414 1.63724 50.1414H14.1756C15.0796 50.1414 15.8125 49.4087 15.8125 48.5044V35.9661C15.8125 35.0618 15.0796 34.3291 14.1756 34.3291Z" fill="#4EFF97"/>
<path d="M81.8938 34.3291H69.3552C68.4512 34.3291 67.7182 35.0618 67.7182 35.9661V48.5044C67.7182 49.4087 68.4512 50.1414 69.3552 50.1414H81.8938C82.7978 50.1414 83.5308 49.4087 83.5308 48.5044V35.9661C83.5308 35.0618 82.7978 34.3291 81.8938 34.3291Z" fill="#4EFF97"/>
<path d="M60.5418 50.1431H50.4126C50.2151 50.1431 50.0258 50.2213 49.8863 50.3609C49.7467 50.5004 49.6682 50.6897 49.6682 50.8872V61.0164C49.6682 61.1142 49.6875 61.2109 49.7248 61.3013C49.762 61.3917 49.817 61.4737 49.886 61.5429L64.281 75.9379C64.4332 76.0902 64.6138 76.2107 64.8128 76.2932C65.0116 76.3756 65.2246 76.4179 65.4398 76.4179C65.6552 76.4179 65.8682 76.3756 66.067 76.2932C66.2661 76.2107 66.4466 76.0902 66.5989 75.9379L75.463 67.0716C75.6153 66.9196 75.7361 66.7388 75.8186 66.54C75.9008 66.341 75.9433 66.128 75.9433 65.9128C75.9433 65.6976 75.9008 65.4843 75.8186 65.2855C75.7361 65.0868 75.6153 64.906 75.463 64.7537L61.0681 50.3588C60.9283 50.22 60.739 50.1423 60.5418 50.1431Z" fill="#4EFF97"/>
<path d="M33.6443 22.9309L19.2493 8.53595C19.0971 8.3837 18.9163 8.2629 18.7175 8.18043C18.5187 8.09822 18.3054 8.05566 18.0903 8.05566C17.8751 8.05566 17.6618 8.09822 17.463 8.18043C17.2643 8.2629 17.0834 8.3837 16.9315 8.53595L8.06701 17.402C7.91476 17.5542 7.79423 17.7348 7.71176 17.9338C7.62929 18.1326 7.58699 18.3456 7.58699 18.5611C7.58699 18.7762 7.62929 18.9893 7.71176 19.1883C7.79423 19.3871 7.91476 19.5676 8.06701 19.7199L22.462 34.1148C22.5312 34.1841 22.6132 34.2388 22.7036 34.2761C22.794 34.3133 22.8907 34.3326 22.9885 34.3326H33.1178C33.3152 34.3326 33.5045 34.2541 33.644 34.1146C33.7836 33.975 33.8618 33.7857 33.8618 33.5883V23.4572C33.8618 23.3594 33.8428 23.2626 33.8055 23.1722C33.768 23.0821 33.7133 22.9999 33.6443 22.9309Z" fill="#4EFF97"/>
<path d="M22.462 50.3606L8.06701 64.7556C7.91476 64.9078 7.79423 65.0886 7.71176 65.2874C7.62929 65.4862 7.58699 65.6995 7.58699 65.9146C7.58699 66.1298 7.62929 66.3428 7.71176 66.5419C7.79423 66.7407 7.91476 66.9215 8.06701 67.0734L16.9333 75.9379C17.0853 76.0901 17.2661 76.2107 17.4649 76.2931C17.6639 76.3756 17.877 76.4179 18.0921 76.4179C18.3073 76.4179 18.5206 76.3756 18.7194 76.2931C18.9181 76.2107 19.0989 76.0901 19.2512 75.9379L33.6461 61.5429C33.7151 61.4737 33.7698 61.3917 33.8074 61.3013C33.8447 61.2109 33.8637 61.1142 33.8637 61.0164V50.8871C33.8637 50.6897 33.7854 50.5004 33.6459 50.3609C33.5063 50.2213 33.3171 50.1431 33.1196 50.1431H22.9885C22.8907 50.1431 22.794 50.1621 22.7036 50.1994C22.6132 50.2369 22.5312 50.2916 22.462 50.3606Z" fill="#4EFF97"/>
<path d="M61.0699 34.113L75.4649 19.718C75.6171 19.5658 75.7377 19.3852 75.8202 19.1865C75.9026 18.9874 75.9449 18.7744 75.9449 18.5592C75.9449 18.3438 75.9026 18.1307 75.8202 17.932C75.7377 17.7329 75.6171 17.5524 75.4649 17.4001L66.5986 8.53595C66.4463 8.3837 66.2658 8.2629 66.067 8.18043C65.868 8.09822 65.655 8.05566 65.4398 8.05566C65.2244 8.05566 65.0113 8.09822 64.8125 8.18043C64.6135 8.2629 64.433 8.3837 64.2807 8.53595L49.8858 22.9309C49.8168 22.9999 49.7621 23.0821 49.7245 23.1722C49.6873 23.2626 49.668 23.3594 49.6682 23.4572V33.5864C49.6682 33.7839 49.7465 33.9731 49.886 34.1127C50.0256 34.2523 50.2148 34.3308 50.4123 34.3308H60.5416C60.6396 34.331 60.7369 34.312 60.8276 34.2745C60.9182 34.2372 61.0004 34.1822 61.0699 34.113Z" fill="#4EFF97"/>
</g>
</svg>
