<svg width="395" height="392" viewBox="0 0 395 392" fill="none" xmlns="http://www.w3.org/2000/svg">
<mask id="mask0_3413_8356" style="mask-type:alpha" maskUnits="userSpaceOnUse" x="0" y="0" width="395" height="392">
<rect width="395" height="392" fill="#D9D9D9"/>
</mask>
<g mask="url(#mask0_3413_8356)">
<g clip-path="url(#clip0_3413_8356)">
<path d="M117.798 244.342C134.525 234.743 145.773 216.702 145.773 196.033C145.773 165.274 120.85 140.351 90.0909 140.351C59.3323 140.351 34.4091 165.274 34.4091 196.033C34.4091 216.747 45.7237 234.832 62.5173 244.409" stroke="#D2D1D6" stroke-width="11.1364" stroke-miterlimit="10" stroke-linejoin="bevel"/>
<path d="M110.626 225.834C120.092 219.308 126.284 208.394 126.284 196.033C126.284 176.054 110.07 159.84 90.0909 159.84C70.1123 159.84 53.8977 176.054 53.8977 196.033C53.8977 208.394 60.0895 219.308 69.5554 225.834" stroke="#D2D1D6" stroke-width="11.1364" stroke-miterlimit="10" stroke-linejoin="bevel"/>
<path d="M90.0909 119.191C100.47 119.191 110.537 121.218 120.003 125.227C129.157 129.103 137.376 134.649 144.436 141.687C151.497 148.747 157.043 156.966 160.896 166.12C164.905 175.586 166.932 185.653 166.932 196.032C166.932 196.277 166.932 196.522 166.932 196.79L166.91 200.153H166.932V255.3C166.932 263.407 160.339 270 152.232 270H109.58H109.09L108.622 270.134C102.608 271.938 96.3496 272.851 90.0687 272.851C83.7878 272.851 77.5291 271.938 71.5155 270.134L71.0478 270H70.5578H27.95C19.8428 270 13.25 263.407 13.25 255.3V200.153H13.2946L13.25 196.79C13.25 196.545 13.25 196.3 13.25 196.032C13.25 185.653 15.2768 175.586 19.2859 166.12C23.1614 156.966 28.7073 148.747 35.7455 141.687C42.8059 134.626 51.0246 129.081 60.1787 125.227C69.6446 121.218 79.7118 119.191 90.0909 119.191ZM90.0909 115.851C45.8128 115.851 9.90912 151.754 9.90912 196.032C9.90912 196.3 9.90912 196.545 9.90912 196.812V255.3C9.90912 265.278 17.9941 273.341 27.95 273.341H70.5355C76.9055 275.256 83.4759 276.192 90.0464 276.192C96.6168 276.192 103.187 275.234 109.557 273.341H152.232C162.21 273.341 170.273 265.256 170.273 255.3V196.812C170.273 196.545 170.273 196.3 170.273 196.032C170.273 151.754 134.369 115.851 90.0909 115.851Z" fill="#D2D1D6"/>
<path d="M109.023 235.833C109.112 235.833 109.201 235.878 109.246 235.967L121.384 257.549C121.407 257.571 121.451 257.638 121.407 257.749C121.362 257.861 121.295 257.905 121.273 257.905L120.382 258.351C111.005 262.984 100.537 265.434 90.0911 265.434C79.6675 265.434 69.2216 263.006 59.867 258.395L58.9093 257.928C58.887 257.905 58.7979 257.883 58.7757 257.772C58.7534 257.66 58.7757 257.594 58.7979 257.571L71.2039 235.989C71.2484 235.9 71.3375 235.855 71.4266 235.855H109.023M109.023 232.492H71.4711C70.1793 232.492 68.9989 233.183 68.3529 234.296L55.947 255.879C54.9002 257.683 55.6129 259.999 57.4839 260.912L58.4416 261.38C68.442 266.302 79.2889 268.774 90.1357 268.774C101.027 268.774 111.896 266.302 121.919 261.335L122.81 260.89C124.658 259.977 125.371 257.683 124.347 255.901L112.163 234.341C111.54 233.205 110.337 232.492 109.023 232.492Z" fill="#D2D1D6"/>
<path d="M90.6255 213.227H104.635C106.216 213.227 107.62 214.43 108.087 216.167L111.384 228.684C112.074 231.335 110.359 234.03 107.931 234.03H72.2505C69.845 234.03 68.1078 231.357 68.7982 228.684L72.0946 216.167C72.5623 214.43 73.9432 213.227 75.5469 213.227H90.6255Z" stroke="#D2D1D6" stroke-width="3.34091" stroke-miterlimit="10"/>
<path d="M106.974 235.833C108.31 235.833 109.557 236.568 110.203 237.726L122.854 260.199V261.825C122.854 263.251 122.052 264.52 120.783 265.166L118.756 266.169C109.891 270.556 99.9578 272.873 90.0687 272.873C80.2019 272.873 70.2905 270.556 61.4482 266.191L59.4214 265.189C58.1519 264.565 57.3278 263.251 57.3501 261.825L57.3723 260.021L70.2014 237.704C70.8696 236.546 72.0946 235.833 73.431 235.833H106.974ZM106.974 232.492H73.431C70.9141 232.492 68.5755 233.851 67.306 236.034L54.0537 259.086H54.0314V259.108L53.9646 259.219L54.0314 259.242L54.0091 261.803C53.9869 264.52 55.5237 266.993 57.9514 268.195L59.9782 269.198C69.4664 273.875 79.7787 276.214 90.0687 276.214C100.403 276.214 110.738 273.853 120.248 269.153L122.275 268.151C124.681 266.948 126.195 264.52 126.195 261.825V259.108H126.061L113.121 236.1C111.874 233.873 109.535 232.492 106.974 232.492Z" fill="#D2D1D6"/>
<path d="M27.6829 259.488C30.1307 259.488 32.1151 257.503 32.1151 255.055C32.1151 252.607 30.1307 250.623 27.6829 250.623C25.235 250.623 23.2506 252.607 23.2506 255.055C23.2506 257.503 25.235 259.488 27.6829 259.488Z" fill="#D2D1D5"/>
</g>
<g clip-path="url(#clip1_3413_8356)">
<path d="M331.616 244.342C348.343 234.743 359.591 216.702 359.591 196.033C359.591 165.274 334.668 140.351 303.909 140.351C273.15 140.351 248.227 165.274 248.227 196.033C248.227 216.747 259.542 234.832 276.335 244.409" stroke="#00D78A" stroke-width="11.1364" stroke-miterlimit="10" stroke-linejoin="bevel"/>
<path d="M324.445 225.834C333.911 219.308 340.102 208.394 340.102 196.033C340.102 176.054 323.888 159.84 303.909 159.84C283.931 159.84 267.716 176.054 267.716 196.033C267.716 208.394 273.908 219.308 283.374 225.834" stroke="#00D78A" stroke-width="11.1364" stroke-miterlimit="10" stroke-linejoin="bevel"/>
<path d="M303.909 119.191C314.288 119.191 324.355 121.218 333.821 125.227C342.975 129.103 351.194 134.649 358.255 141.687C365.315 148.747 370.861 156.966 374.714 166.12C378.723 175.586 380.75 185.653 380.75 196.032C380.75 196.277 380.75 196.522 380.75 196.79L380.728 200.153H380.75V255.3C380.75 263.407 374.157 270 366.05 270H323.398H322.908L322.44 270.134C316.426 271.938 310.168 272.851 303.887 272.851C297.606 272.851 291.347 271.938 285.334 270.134L284.866 270H284.376H241.768C233.661 270 227.068 263.407 227.068 255.3V200.153H227.113L227.068 196.79C227.068 196.545 227.068 196.3 227.068 196.032C227.068 185.653 229.095 175.586 233.104 166.12C236.98 156.966 242.525 148.747 249.564 141.687C256.624 134.626 264.843 129.081 273.997 125.227C283.463 121.218 293.53 119.191 303.909 119.191ZM303.909 115.851C259.631 115.851 223.727 151.754 223.727 196.032C223.727 196.3 223.727 196.545 223.727 196.812V255.3C223.727 265.278 231.812 273.341 241.768 273.341H284.354C290.724 275.256 297.294 276.192 303.865 276.192C310.435 276.192 317.005 275.234 323.375 273.341H366.05C376.028 273.341 384.091 265.256 384.091 255.3V196.812C384.091 196.545 384.091 196.3 384.091 196.032C384.091 151.754 348.187 115.851 303.909 115.851Z" fill="black"/>
<path d="M322.841 235.833C322.93 235.833 323.019 235.878 323.064 235.967L335.202 257.549C335.225 257.571 335.269 257.638 335.225 257.749C335.18 257.861 335.113 257.905 335.091 257.905L334.2 258.351C324.823 262.984 314.355 265.434 303.909 265.434C293.486 265.434 283.04 263.006 273.685 258.395L272.727 257.928C272.705 257.905 272.616 257.883 272.594 257.772C272.571 257.66 272.594 257.594 272.616 257.571L285.022 235.989C285.066 235.9 285.156 235.855 285.245 235.855H322.841M322.841 232.492H285.289C283.997 232.492 282.817 233.183 282.171 234.296L269.765 255.879C268.718 257.683 269.431 259.999 271.302 260.912L272.26 261.38C282.26 266.302 293.107 268.774 303.954 268.774C314.845 268.774 325.714 266.302 335.737 261.335L336.628 260.89C338.476 259.977 339.189 257.683 338.165 255.901L325.981 234.341C325.358 233.205 324.155 232.492 322.841 232.492Z" fill="black"/>
<path d="M304.444 213.227H318.453C320.035 213.227 321.438 214.43 321.905 216.167L325.202 228.684C325.892 231.335 324.177 234.03 321.75 234.03H286.069C283.663 234.03 281.926 231.357 282.616 228.684L285.913 216.167C286.38 214.43 287.761 213.227 289.365 213.227H304.444Z" stroke="black" stroke-width="3.34091" stroke-miterlimit="10"/>
<path d="M320.792 235.833C322.128 235.833 323.375 236.568 324.021 237.726L336.672 260.199V261.825C336.672 263.251 335.87 264.52 334.601 265.166L332.574 266.169C323.71 270.556 313.776 272.873 303.887 272.873C294.02 272.873 284.109 270.556 275.266 266.191L273.24 265.189C271.97 264.565 271.146 263.251 271.168 261.825L271.19 260.021L284.02 237.704C284.688 236.546 285.913 235.833 287.249 235.833H320.792ZM320.792 232.492H287.249C284.732 232.492 282.394 233.851 281.124 236.034L267.872 259.086H267.85V259.108L267.783 259.219L267.85 259.242L267.827 261.803C267.805 264.52 269.342 266.993 271.77 268.195L273.796 269.198C283.285 273.875 293.597 276.214 303.887 276.214C314.221 276.214 324.556 273.853 334.066 269.153L336.093 268.151C338.499 266.948 340.013 264.52 340.013 261.825V259.108H339.88L326.939 236.1C325.692 233.873 323.353 232.492 320.792 232.492Z" fill="black"/>
<path d="M241.501 259.488C243.949 259.488 245.933 257.503 245.933 255.055C245.933 252.607 243.949 250.623 241.501 250.623C239.053 250.623 237.069 252.607 237.069 255.055C237.069 257.503 239.053 259.488 241.501 259.488Z" fill="#00D78A"/>
</g>
<path d="M82.2955 80.7158V80.7158C121.488 -14.8161 256.993 -14.2894 296.114 81.2718V81.2718" stroke="#00D78A" stroke-width="5.56818" stroke-linecap="round"/>
<path d="M281.079 80.7147L297.418 86.2056C298.6 86.603 299.878 85.952 300.252 84.762L305.023 69.5783" stroke="#00D78A" stroke-width="5.56818" stroke-linecap="round"/>
<path d="M310.673 310.708V310.708C271.481 406.24 135.976 405.713 96.8549 310.152V310.152" stroke="#021A07" stroke-width="5.56818" stroke-linecap="round"/>
<path d="M111.889 310.709L95.5507 305.218C94.3683 304.82 93.0901 305.471 92.7163 306.661L87.9457 321.845" stroke="#021A07" stroke-width="5.56818" stroke-linecap="round"/>
</g>
<defs>
<clipPath id="clip0_3413_8356">
<rect width="197.49" height="197.49" fill="white" transform="translate(-20.2392 97.3223)"/>
</clipPath>
<clipPath id="clip1_3413_8356">
<rect width="178.182" height="178.182" fill="white" transform="translate(214.818 106.942)"/>
</clipPath>
</defs>
</svg>
