<svg width="20" height="20" viewBox="0 0 20 20" fill="none" xmlns="http://www.w3.org/2000/svg">
<path d="M4.49189 0.25C4.09964 0.25 3.71264 0.391 3.39014 0.64825L3.34364 0.6715L3.32039 0.6955L0.97664 3.10975L0.999889 3.13225C0.655995 3.44452 0.412334 3.85168 0.299673 4.30232C0.187011 4.75297 0.210401 5.22689 0.366889 5.66425C0.369889 5.67025 0.363889 5.6815 0.366889 5.6875C1.00289 7.507 2.62889 11.02 5.80439 14.1955C8.99189 17.383 12.5514 18.9445 14.3124 19.633H14.3356C14.777 19.7789 15.2485 19.808 15.7045 19.7176C16.1604 19.6272 16.5851 19.4203 16.9374 19.117L19.3044 16.75C19.9254 16.129 19.9254 15.0505 19.3044 14.4295L16.2579 11.383L16.2339 11.3357C15.6129 10.7147 14.5119 10.7147 13.8901 11.3357L12.3901 12.8357C11.2644 12.2949 10.229 11.5836 9.32039 10.7267C8.09264 9.5545 7.46564 8.20675 7.23464 7.6795L8.73464 6.1795C9.36464 5.5495 9.37589 4.501 8.71064 3.883L8.73389 3.859L8.66414 3.78925L5.66414 0.6955L5.64089 0.67225L5.59364 0.64825C5.28236 0.394077 4.89374 0.253602 4.49189 0.25ZM4.49189 1.75C4.5532 1.75356 4.61132 1.77851 4.65614 1.8205L7.65614 4.89025L7.72664 4.96075C7.72064 4.95475 7.77014 5.03425 7.67939 5.125L5.80439 7L5.45264 7.3285L5.61764 7.7965C5.61764 7.7965 6.47864 10.1027 8.28914 11.8285L8.45339 11.9687C10.1956 13.5595 12.2499 14.4295 12.2499 14.4295L12.7186 14.641L14.9454 12.4135C15.0744 12.2852 15.0504 12.2852 15.1794 12.4135L18.2499 15.4855C18.3789 15.6137 18.3789 15.5672 18.2499 15.6955L15.9526 17.9927C15.6076 18.289 15.2409 18.3505 14.8051 18.2042C13.1056 17.536 9.80339 16.0855 6.85889 13.1417C3.89114 10.1732 2.34164 6.80725 1.77389 5.173C1.65914 4.86775 1.74089 4.417 2.00789 4.18825L2.05439 4.141L4.32839 1.82125C4.37271 1.77931 4.43026 1.75411 4.49114 1.75H4.49189Z" fill="#021A07"/>
</svg>
