<svg width="30" height="30" viewBox="0 0 30 30" fill="none" xmlns="http://www.w3.org/2000/svg">
<path d="M15 0C6.72875 0 0 6.72875 0 15C0 23.2712 6.72875 30 15 30C23.2712 30 30 23.2712 30 15C30 6.72875 23.2712 0 15 0ZM15 2.5C21.9187 2.5 27.5 8.08125 27.5 15C27.5 21.9187 21.9187 27.5 15 27.5C8.08125 27.5 2.5 21.9187 2.5 15C2.5 8.08125 8.08125 2.5 15 2.5ZM10 6.40625V23.5938L11.875 22.5L23.125 16.0938L25 15L23.125 13.9062L11.875 7.5L10 6.40625ZM12.5 10.7037L19.9613 15L12.5 19.2975V10.7037Z" fill="white"/>
</svg>
