<svg width="28" height="28" viewBox="0 0 28 28" fill="none" xmlns="http://www.w3.org/2000/svg">
<path d="M14 0.5C6.55587 0.5 0.5 6.55587 0.5 14C0.5 21.4441 6.55587 27.5 14 27.5C21.4441 27.5 27.5 21.4441 27.5 14C27.5 6.55587 21.4441 0.5 14 0.5ZM14 2.75C20.2269 2.75 25.25 7.77313 25.25 14C25.25 20.2269 20.2269 25.25 14 25.25C7.77313 25.25 2.75 20.2269 2.75 14C2.75 7.77313 7.77313 2.75 14 2.75ZM9.5 6.26562V21.7344L11.1875 20.75L21.3125 14.9844L23 14L21.3125 13.0156L11.1875 7.25L9.5 6.26562ZM11.75 10.1334L18.4651 14L11.75 17.8678V10.1334Z" fill="white"/>
</svg>
