<svg width="25" height="21" viewBox="0 0 25 21" fill="none" xmlns="http://www.w3.org/2000/svg">
<path d="M24.2524 11.0273L20.8774 2.58984C20.8031 2.40399 20.6651 2.25061 20.4881 2.1571C20.3112 2.06359 20.1067 2.03604 19.9113 2.07938L13.3438 3.53906V1.21875C13.3438 0.994974 13.2549 0.780363 13.0966 0.622129C12.9384 0.463895 12.7238 0.375 12.5 0.375C12.2762 0.375 12.0616 0.463895 11.9034 0.622129C11.7452 0.780363 11.6563 0.994974 11.6563 1.21875V3.91664L4.72275 5.45754C4.58907 5.48707 4.46458 5.54868 4.36003 5.63706C4.25548 5.72545 4.174 5.83794 4.12263 5.96484V5.97117L0.747633 14.4023C0.707259 14.5029 0.686841 14.6104 0.687516 14.7188C0.687516 17.1772 3.27572 18.0938 4.90627 18.0938C6.53681 18.0938 9.12502 17.1772 9.12502 14.7188C9.12569 14.6104 9.10527 14.5029 9.0649 14.4023L6.05798 6.8898L11.6563 5.64844V18.9375H9.96877C9.74499 18.9375 9.53038 19.0264 9.37214 19.1846C9.21391 19.3429 9.12502 19.5575 9.12502 19.7812C9.12502 20.005 9.21391 20.2196 9.37214 20.3779C9.53038 20.5361 9.74499 20.625 9.96877 20.625H15.0313C15.255 20.625 15.4697 20.5361 15.6279 20.3779C15.7861 20.2196 15.875 20.005 15.875 19.7812C15.875 19.5575 15.7861 19.3429 15.6279 19.1846C15.4697 19.0264 15.255 18.9375 15.0313 18.9375H13.3438V5.27086L18.7227 4.07695L15.9351 11.0273C15.8948 11.1279 15.8743 11.2354 15.875 11.3438C15.875 13.8022 18.4632 14.7188 20.0938 14.7188C21.7243 14.7188 24.3125 13.8022 24.3125 11.3438C24.3132 11.2354 24.2928 11.1279 24.2524 11.0273ZM4.90627 16.4062C4.11209 16.4062 2.5058 16.0255 2.3824 14.8622L4.90627 8.55305L7.43013 14.8622C7.30673 16.0255 5.70045 16.4062 4.90627 16.4062ZM20.0938 13.0312C19.2996 13.0312 17.6933 12.6505 17.5699 11.4872L20.0938 5.17805L22.6176 11.4872C22.4942 12.6505 20.8879 13.0312 20.0938 13.0312Z" fill="#838A84"/>
</svg>
