<svg width="32" height="26" viewBox="0 0 32 26" fill="none" xmlns="http://www.w3.org/2000/svg">
<path d="M12.6596 3.4625H12.7648L12.8006 3.36351C13.2769 2.04637 14.5317 1.0875 16 1.0875C17.4695 1.0875 18.7231 2.04635 19.1982 3.3634L19.2339 3.4625H19.3393H27.725V5.5375H26.2054H25.949L26.0746 5.76099L26.4083 6.35474L26.4088 6.35567L31.1567 14.6645L31.2875 14.926V15.1875C31.2875 18.3703 28.6828 20.975 25.5 20.975C22.3172 20.975 19.7125 18.3703 19.7125 15.1875V14.926L19.8433 14.6645L24.5912 6.35567L24.5917 6.35474L24.9254 5.76099L25.051 5.5375H24.7946H19.3404H19.2355L19.1995 5.63608C19.0268 6.1095 18.7526 6.53939 18.3962 6.89563C18.0397 7.25187 17.6097 7.52583 17.1362 7.69831L17.0375 7.73425V7.83925V23.5V23.65H17.1875H21.7875V25.725H10.2125V23.65H14.8125H14.9625V23.5V7.84044V7.73515L14.8635 7.69937C14.3894 7.52806 13.9589 7.25441 13.6026 6.8979C13.2463 6.54138 12.9729 6.11074 12.8018 5.6366L12.7661 5.5375H12.6607H7.20537H6.94901L7.07461 5.76099L7.4083 6.35474L7.4083 6.35474L7.40883 6.35567L12.1568 14.6646L12.2875 14.926V15.1875C12.2875 18.3703 9.68278 20.975 6.5 20.975C3.31722 20.975 0.7125 18.3703 0.7125 15.1875V14.926L0.843241 14.6646L5.59117 6.35567L5.59118 6.35567L5.5917 6.35474L5.92539 5.76099L6.05099 5.5375H5.79463H4.275V3.4625H12.6596ZM6.63005 9.21207L6.49997 8.98573L6.36993 9.2121L3.66243 13.9253L3.53334 14.15H3.7925H9.20869H9.4679L9.33874 13.9253L6.63005 9.21207ZM25.6301 9.21207L25.5 8.98573L25.3699 9.2121L22.6624 13.9253L22.5333 14.15H22.7925H28.2087H28.4679L28.3387 13.9253L25.6301 9.21207ZM3.23438 16.225H3.02364L3.09264 16.4241C3.58898 17.8563 4.88059 18.9 6.5 18.9C8.11941 18.9 9.41102 17.8563 9.90736 16.4241L9.97636 16.225H9.76562H3.23438ZM22.2344 16.225H22.0236L22.0926 16.4241C22.589 17.8563 23.8806 18.9 25.5 18.9C27.1194 18.9 28.411 17.8563 28.9074 16.4241L28.9764 16.225H28.7656H22.2344ZM17.3375 4.5C17.3375 3.74988 16.7515 3.1625 16 3.1625C15.2499 3.1625 14.6625 3.7485 14.6625 4.5C14.6625 5.25012 15.2485 5.8375 16 5.8375C16.7501 5.8375 17.3375 5.2515 17.3375 4.5Z" fill="#021A07" stroke="#E6E6E6" stroke-width="0.3"/>
</svg>
