<svg width="22" height="22" viewBox="0 0 22 22" fill="none" xmlns="http://www.w3.org/2000/svg">
<path d="M13.4357 0.4375C8.95725 0.4375 5.31075 4.084 5.31075 8.5625C5.31075 10.5084 5.99325 12.2919 7.13887 13.6918L0.664062 20.165L1.83325 21.335L8.30725 14.8602C9.75313 16.0456 11.5661 16.6915 13.4357 16.6875C17.9142 16.6875 21.5607 13.041 21.5607 8.5625C21.5607 4.084 17.9142 0.4375 13.4357 0.4375ZM13.4357 2.0625C17.0351 2.0625 19.9357 4.96312 19.9357 8.5625C19.9357 12.1619 17.0351 15.0625 13.4357 15.0625C9.83637 15.0625 6.93575 12.1619 6.93575 8.5625C6.93575 4.96312 9.83637 2.0625 13.4357 2.0625Z" fill="#021A07"/>
</svg>
