<svg width="18" height="19" viewBox="0 0 18 19" fill="none" xmlns="http://www.w3.org/2000/svg">
<path d="M9 0C5.72325 0 3.05 2.71614 3.05 6.04545C3.05 8.12682 4.0955 9.975 5.6799 11.0658C2.64795 12.3871 0.5 15.4444 0.5 19H2.2C2.2 15.1741 5.2345 12.0909 9 12.0909C12.7655 12.0909 15.8 15.1741 15.8 19H17.5C17.5 15.4444 15.3521 12.388 12.3201 11.0649C13.1287 10.5103 13.7913 9.76271 14.2498 8.88767C14.7082 8.01263 14.9487 7.03676 14.95 6.04545C14.95 2.71614 12.2768 0 9 0ZM9 1.72727C11.357 1.72727 13.25 3.65059 13.25 6.04545C13.25 8.44032 11.357 10.3636 9 10.3636C6.64295 10.3636 4.75 8.44032 4.75 6.04545C4.75 3.65059 6.64295 1.72727 9 1.72727Z" fill="#021A07"/>
</svg>
