<svg width="30" height="30" viewBox="0 0 30 30" fill="none" xmlns="http://www.w3.org/2000/svg">
<path d="M15 0.375C6.9 0.375 0.375 6.9 0.375 15C0.375 23.1 6.9 29.625 15 29.625C23.1 29.625 29.625 23.1 29.625 15C29.625 13.4272 29.4135 11.8579 28.851 10.3942L27.024 12.1875C27.249 13.0875 27.3761 13.9897 27.3761 15C27.3761 21.8647 21.8659 27.375 15.0011 27.375C8.13637 27.375 2.625 21.8647 2.625 15C2.625 8.13525 8.13525 2.625 15 2.625C18.375 2.625 21.4069 3.96937 23.5432 6.10575L25.125 4.524C22.5375 1.93425 18.9375 0.375 15 0.375ZM27.6911 5.19112L15 17.8834L10.1839 13.0661L8.56612 14.6839L14.1911 20.3089L15 21.0818L15.8089 20.3089L29.3089 6.80888L27.6911 5.19112Z" fill="#00D78A"/>
</svg>
