<svg width="36" height="26" viewBox="0 0 36 26" fill="none" xmlns="http://www.w3.org/2000/svg">
<path d="M0 0.75V3H21.375V19.875H14.4495C13.9478 17.9411 12.2085 16.5 10.125 16.5C8.0415 16.5 6.30225 17.9411 5.8005 19.875H4.5V14.25H2.25V22.125H5.8005C6.30225 24.0589 8.0415 25.5 10.125 25.5C12.2085 25.5 13.9478 24.0589 14.4495 22.125H23.8005C24.3022 24.0589 26.0415 25.5 28.125 25.5C30.2085 25.5 31.9478 24.0589 32.4495 22.125H36V12.9495L35.9291 12.7729L33.6791 6.02288L33.435 5.25H23.625V0.75H0ZM1.125 5.25V7.5H11.25V5.25H1.125ZM23.625 7.5H31.8161L33.75 13.2656V19.875H32.4495C31.9478 17.9411 30.2085 16.5 28.125 16.5C26.0415 16.5 24.3022 17.9411 23.8005 19.875H23.625V7.5ZM2.25 9.75V12H9V9.75H2.25ZM10.125 18.75C11.3816 18.75 12.375 19.7434 12.375 21C12.375 22.2566 11.3816 23.25 10.125 23.25C8.86837 23.25 7.875 22.2566 7.875 21C7.875 19.7434 8.86837 18.75 10.125 18.75ZM28.125 18.75C29.3816 18.75 30.375 19.7434 30.375 21C30.375 22.2566 29.3816 23.25 28.125 23.25C26.8684 23.25 25.875 22.2566 25.875 21C25.875 19.7434 26.8684 18.75 28.125 18.75Z" fill="#00D78A"/>
</svg>
