<svg width="30" height="30" viewBox="0 0 30 30" fill="none" xmlns="http://www.w3.org/2000/svg">
<path d="M11.8323 0.375L11.6557 1.28962L10.9874 4.62862C9.93316 5.05161 8.94949 5.63278 8.07031 6.35212L4.80106 5.22713L3.92131 4.94588L3.46456 5.75362L1.21456 9.62138L0.757812 10.4303L1.42606 11.0265L3.95731 13.2428C3.86281 13.8165 3.74581 14.3925 3.74581 15C3.74581 15.6075 3.86394 16.1812 3.95731 16.7584L1.42606 18.9724L0.757812 19.5709L1.21456 20.3786L3.46456 24.2464L3.92131 25.0541L4.80106 24.7729L8.07031 23.6479C8.94984 24.3673 9.93389 24.9485 10.9886 25.3714L11.6557 28.7104L11.8312 29.625H18.1604L18.3359 28.7104L19.0031 25.3714C20.0577 24.9485 21.0418 24.3673 21.9213 23.6479L25.1917 24.7729L26.0692 25.0541L26.5271 24.2464L28.7771 20.3786L29.2338 19.5709L28.5667 18.9724L26.0354 16.7584C26.1277 16.1812 26.2458 15.6053 26.2458 15C26.2458 14.3925 26.1277 13.8188 26.0343 13.2416L28.5656 11.0276L29.2338 10.4303L28.7771 9.62025L26.5271 5.75362L26.0703 4.94588L25.1906 5.22713L21.9213 6.35212C21.0421 5.63278 20.0585 5.05161 19.0042 4.62862L18.3359 1.28962L18.1593 0.375H11.8323ZM13.6593 2.625H16.3323L16.8948 5.54325L17.0354 6.21038L17.6677 6.42188C18.9354 6.81898 20.0998 7.49125 21.0776 8.39062L21.5703 8.84737L22.2026 8.637L25.0511 7.65263L26.3864 9.9375L24.1364 11.9411L23.6088 12.363L23.7854 13.0312C23.9294 13.6725 23.9958 14.3273 23.9958 15C23.9958 15.6727 23.9294 16.3275 23.7843 16.9688L23.6437 17.637L24.1364 18.0589L26.3864 20.0625L25.0499 22.3474L22.2037 21.363L21.5703 21.1526L21.0776 21.6094C20.0998 22.5087 18.9354 23.181 17.6677 23.5781L17.0343 23.7896L16.8937 24.4568L16.3312 27.375H13.6593L13.0968 24.4568L12.9573 23.7896L12.3239 23.5781C11.0562 23.181 9.89182 22.5087 8.91406 21.6094L8.42131 21.1526L7.78906 21.363L4.94169 22.3474L3.60519 20.0625L5.85519 18.0589L6.38281 17.637L6.20731 16.9688C6.06371 16.3224 5.99277 15.6621 5.99581 15C5.99581 14.3273 6.06219 13.6725 6.20731 13.0312L6.38281 12.363L5.85519 11.9411L3.60519 9.9375L4.94169 7.65263L7.78794 8.637L8.42131 8.84737L8.91406 8.39062C9.89182 7.49125 11.0562 6.81898 12.3239 6.42188L12.9573 6.21038L13.0968 5.54325L13.6593 2.625ZM14.9958 9.375C11.9021 9.375 9.37081 11.9062 9.37081 15C9.37081 18.0938 11.9021 20.625 14.9958 20.625C18.0896 20.625 20.6208 18.0938 20.6208 15C20.6208 11.9062 18.0896 9.375 14.9958 9.375ZM14.9958 11.625C16.8723 11.625 18.3708 13.1235 18.3708 15C18.3708 16.8765 16.8723 18.375 14.9958 18.375C13.1193 18.375 11.6208 16.8765 11.6208 15C11.6208 13.1235 13.1193 11.625 14.9958 11.625Z" fill="#00D78A"/>
</svg>
