<svg width="26" height="28" viewBox="0 0 26 28" fill="none" xmlns="http://www.w3.org/2000/svg">
<path d="M13 0.5C10.4688 0.5 8.76325 1.49788 7.23438 2.32813C5.70437 3.15838 4.31612 3.875 1.75 3.875H0.625V5C0.625 13.6839 3.56125 19.3348 6.53125 22.7536C9.50125 26.1736 12.5781 27.4303 12.5781 27.4303L13 27.5709L13.4219 27.4303C13.4219 27.4303 16.4976 26.1995 19.4688 22.7896C22.4387 19.3775 25.375 13.7131 25.375 5V3.875H24.25C21.6963 3.875 20.2945 3.15838 18.7656 2.32813C17.2356 1.49788 15.5312 0.5 13 0.5ZM13 2.75C14.9688 2.75 16.0983 3.43963 17.6755 4.29688C19.3393 5.20405 21.1691 5.76614 23.0553 5.9495C22.8393 13.5601 20.3215 18.3988 17.7812 21.3125C15.4784 23.954 13.5445 24.8326 13 25.0745C12.451 24.8281 10.5216 23.927 8.21875 21.2776C5.6785 18.3549 3.16075 13.5264 2.94475 5.9495C4.83119 5.76752 6.66123 5.20534 8.3245 4.29688C9.90175 3.43963 11.0312 2.75 13 2.75Z" fill="#00D78A"/>
</svg>
