<svg width="41" height="41" viewBox="0 0 41 41" fill="none" xmlns="http://www.w3.org/2000/svg">
<path fill-rule="evenodd" clip-rule="evenodd" d="M12.6076 4.57684H28.8884C29.9431 4.57542 30.9878 4.78213 31.9626 5.18513C32.9374 5.58812 33.823 6.17948 34.5689 6.92532C35.3147 7.67117 35.9061 8.55684 36.3091 9.5316C36.7121 10.5064 36.9188 11.5511 36.9174 12.6059V28.8866C36.9188 29.9414 36.7121 30.9861 36.3091 31.9609C35.9061 32.9356 35.3147 33.8213 34.5689 34.5672C33.823 35.313 32.9374 35.9044 31.9626 36.3074C30.9878 36.7104 29.9431 36.9171 28.8884 36.9156H12.6094C11.5544 36.9173 10.5095 36.7108 9.53456 36.3079C8.55959 35.905 7.6737 35.3137 6.92766 34.5678C6.18163 33.8219 5.59011 32.9362 5.18701 31.9613C4.7839 30.9864 4.57713 29.9416 4.57855 28.8866V12.6076C4.5769 11.5527 4.78343 10.5078 5.18632 9.53285C5.5892 8.55788 6.18052 7.67199 6.92639 6.92595C7.67226 6.17992 8.55801 5.5884 9.5329 5.1853C10.5078 4.78219 11.5526 4.57542 12.6076 4.57684ZM30.7346 8.62977C30.9326 8.54831 31.1447 8.50685 31.3587 8.5078C31.5728 8.50662 31.7851 8.54789 31.9833 8.62925C32.1814 8.71061 32.3614 8.83043 32.5129 8.98179C32.6645 9.13315 32.7845 9.31305 32.8661 9.51108C32.9476 9.70911 32.9891 9.92135 32.9882 10.1355C32.9891 10.3497 32.9476 10.5619 32.8661 10.76C32.7845 10.958 32.6645 11.1379 32.5129 11.2893C32.3614 11.4406 32.1814 11.5604 31.9833 11.6418C31.7851 11.7232 31.5728 11.7644 31.3587 11.7632C30.4532 11.7632 29.731 11.041 29.731 10.1355C29.73 9.9215 29.7715 9.70941 29.8529 9.5115C29.9344 9.31359 30.0542 9.13377 30.2056 8.98243C30.3569 8.83109 30.5367 8.71123 30.7346 8.62977ZM9.96835 20.7462C9.96835 14.8175 14.8192 9.96664 20.748 9.96664C26.6767 9.96664 31.5276 14.8175 31.5276 20.7462C31.5276 26.675 26.6767 31.5258 20.748 31.5258C14.8192 31.5258 9.96835 26.675 9.96835 20.7462Z" fill="url(#paint0_linear_1670_8268)"/>
<path d="M20.748 13.5598C24.7418 13.5598 27.9344 16.7524 27.9344 20.7462C27.9344 24.7401 24.7418 27.9326 20.748 27.9326C16.7541 27.9326 13.5616 24.7401 13.5616 20.7462C13.5616 16.7524 16.7541 13.5598 20.748 13.5598Z" fill="url(#paint1_linear_1670_8268)"/>
<path fill-rule="evenodd" clip-rule="evenodd" d="M12.6076 0.983643C6.22783 0.983643 0.985352 6.21894 0.985352 12.6059V28.8866C0.985352 35.2664 6.22065 40.5089 12.6076 40.5089H28.8884C35.2681 40.5089 40.5106 35.2736 40.5106 28.8866V12.6076C40.5106 6.22612 35.2753 0.983643 28.8884 0.983643H12.6076ZM12.6076 4.57684H28.8884C29.9431 4.57542 30.9878 4.78213 31.9626 5.18513C32.9374 5.58812 33.823 6.17948 34.5689 6.92532C35.3147 7.67117 35.9061 8.55684 36.3091 9.5316C36.7121 10.5064 36.9188 11.5511 36.9174 12.6059V28.8866C36.9188 29.9414 36.7121 30.9861 36.3091 31.9609C35.9061 32.9356 35.3147 33.8213 34.5689 34.5672C33.823 35.313 32.9374 35.9044 31.9626 36.3074C30.9878 36.7104 29.9431 36.9171 28.8884 36.9156H12.6094C11.5544 36.9173 10.5095 36.7108 9.53456 36.3079C8.55959 35.905 7.6737 35.3137 6.92766 34.5678C6.18163 33.8219 5.59011 32.9362 5.18701 31.9613C4.7839 30.9864 4.57713 29.9416 4.57855 28.8866V12.6076C4.5769 11.5527 4.78343 10.5078 5.18632 9.53285C5.5892 8.55788 6.18052 7.67199 6.92639 6.92595C7.67226 6.17992 8.55801 5.5884 9.5329 5.1853C10.5078 4.78219 11.5526 4.57542 12.6076 4.57684Z" fill="url(#paint2_linear_1670_8268)"/>
<defs>
<linearGradient id="paint0_linear_1670_8268" x1="20.748" y1="0.983643" x2="20.748" y2="40.5089" gradientUnits="userSpaceOnUse">
<stop stop-color="#C23DC5"/>
<stop offset="0.0001" stop-color="#8A47C8"/>
<stop offset="1" stop-color="#F46D00"/>
</linearGradient>
<linearGradient id="paint1_linear_1670_8268" x1="20.748" y1="0.983643" x2="20.748" y2="40.5089" gradientUnits="userSpaceOnUse">
<stop stop-color="#C23DC5"/>
<stop offset="0.0001" stop-color="#8A47C8"/>
<stop offset="1" stop-color="#F46D00"/>
</linearGradient>
<linearGradient id="paint2_linear_1670_8268" x1="20.748" y1="0.983643" x2="20.748" y2="40.5089" gradientUnits="userSpaceOnUse">
<stop stop-color="#C23DC5"/>
<stop offset="0.0001" stop-color="#8A47C8"/>
<stop offset="1" stop-color="#F46D00"/>
</linearGradient>
</defs>
</svg>
