<svg width="32" height="34" viewBox="0 0 32 34" fill="none" xmlns="http://www.w3.org/2000/svg">
<path d="M4.69831 0.876832C4.18879 0.876446 3.68419 0.976445 3.21333 1.17112C2.74247 1.36579 2.31457 1.65132 1.95409 2.0114C1.5936 2.37148 1.30758 2.79905 1.11238 3.26969C0.917171 3.74033 0.816599 4.24481 0.816406 4.75433C0.816406 6.89871 2.55394 8.6759 4.69391 8.6759C6.83681 8.6759 8.57581 6.89871 8.57581 4.75727C8.5762 4.24782 8.47619 3.74329 8.2815 3.27251C8.08681 2.80173 7.80126 2.37393 7.44116 2.01356C7.08106 1.65319 6.65348 1.36732 6.18285 1.17227C5.71221 0.977223 5.20776 0.876832 4.69831 0.876832ZM23.6334 11.1581C20.3743 11.1581 18.5104 12.8618 17.6145 14.5568H17.5205V11.6149H11.0977V33.1893H17.7907V22.5101C17.7907 19.6959 18.0022 16.9758 21.4847 16.9758C24.9171 16.9758 24.9671 20.185 24.9671 22.6878V33.1893H31.6602V21.3395C31.6602 15.5408 30.4132 11.1581 23.6334 11.1581ZM1.34956 11.6134V33.1893H8.04706V11.6134H1.34956Z" fill="#0B66C3"/>
</svg>
