<svg width="43" height="44" viewBox="0 0 43 44" fill="none" xmlns="http://www.w3.org/2000/svg">
<path d="M21.804 0.822998C10.2213 0.822998 0.826172 9.58037 0.826172 20.4327C0.826172 26.1795 3.46977 31.5593 8.12279 35.3002V43.3272L15.9681 39.2229C17.8813 39.768 19.7981 39.9497 21.804 39.9497C33.3866 39.9497 42.7817 31.1959 42.7817 20.34C42.7817 9.58037 33.3866 0.822998 21.804 0.822998ZM23.9025 26.9098L18.6117 21.2521L8.76054 26.8172L19.7055 15.2345L25.0889 20.6144L34.6657 15.2345L23.9025 26.9098Z" fill="#B8C0BC"/>
<path d="M21.804 0.822998C10.2213 0.822998 0.826172 9.58037 0.826172 20.4327C0.826172 26.1795 3.46977 31.5593 8.12279 35.3002V43.3272L15.9681 39.2229C17.8813 39.768 19.7981 39.9497 21.804 39.9497C33.3866 39.9497 42.7817 31.1959 42.7817 20.34C42.7817 9.58037 33.3866 0.822998 21.804 0.822998ZM23.9025 26.9098L18.6117 21.2521L8.76054 26.8172L19.7055 15.2345L25.0889 20.6144L34.6657 15.2345L23.9025 26.9098Z" fill="url(#paint0_linear_1670_8252)"/>
<defs>
<linearGradient id="paint0_linear_1670_8252" x1="21.804" y1="0.822998" x2="21.804" y2="43.3272" gradientUnits="userSpaceOnUse">
<stop stop-color="#F25C6F"/>
<stop offset="1" stop-color="#4966F7"/>
</linearGradient>
</defs>
</svg>
