<svg width="41" height="37" viewBox="0 0 41 37" fill="none" xmlns="http://www.w3.org/2000/svg">
<path d="M40.0833 0.976632C39.3993 0.396551 38.3248 0.313552 37.2139 0.759558H37.2121C36.0437 1.22837 4.13925 14.9132 2.84045 15.4723C2.60422 15.5544 0.541098 16.3242 0.753612 18.0389C0.943324 19.5848 2.60148 20.2251 2.80396 20.299L10.9151 23.0763C11.4532 24.8676 13.437 31.4765 13.8757 32.8884C14.1493 33.7686 14.5953 34.9251 15.377 35.1631C16.0628 35.4276 16.7451 35.1859 17.1865 34.8393L22.1455 30.2397L30.1508 36.4829L30.3414 36.5969C30.885 36.8377 31.4058 36.9581 31.9029 36.9581C32.2869 36.9581 32.6554 36.886 33.0074 36.7419C34.2068 36.2494 34.6866 35.1066 34.7367 34.9771L40.7163 3.89619C41.0811 2.23621 40.574 1.39163 40.0833 0.976632ZM18.0685 24.1872L15.3323 31.4838L12.596 22.363L33.5738 6.85771L18.0685 24.1872Z" fill="#33A9E5"/>
</svg>
