<svg width="24" height="21" viewBox="0 0 24 21" fill="none" xmlns="http://www.w3.org/2000/svg">
<path d="M22.9916 0.407032C22.6016 0.0763121 21.989 0.0289921 21.3557 0.283272H21.3546C20.6885 0.550552 2.49892 8.35263 1.75844 8.67139C1.62376 8.71819 0.447517 9.15707 0.568677 10.1347C0.676837 11.0161 1.6222 11.3811 1.73764 11.4232L6.362 13.0066C6.6688 14.0279 7.7998 17.7958 8.04992 18.6008C8.20592 19.1026 8.4602 19.762 8.90584 19.8977C9.29688 20.0485 9.68584 19.9107 9.93752 19.7131L12.7648 17.0907L17.3288 20.6501L17.4375 20.7151C17.7474 20.8524 18.0443 20.921 18.3277 20.921C18.5466 20.921 18.7567 20.88 18.9574 20.7978C19.6412 20.517 19.9148 19.8654 19.9434 19.7916L23.3525 2.07155C23.5605 1.12515 23.2714 0.643632 22.9916 0.407032ZM10.4404 13.64L8.88036 17.8L7.32036 12.6L19.2804 3.75999L10.4404 13.64Z" fill="white"/>
</svg>
