<svg width="26" height="28" viewBox="0 0 26 28" fill="none" xmlns="http://www.w3.org/2000/svg">
<path d="M24.4599 6.21632C23.9964 4.56278 23.0795 3.25378 21.7342 2.32785C20.0365 1.15825 18.0838 0.74345 16.3974 0.49185C14.0638 0.143917 11.9502 0.0951835 9.93736 0.341117C8.04922 0.572317 6.62802 0.941784 5.33035 1.53792C2.78829 2.70525 1.26282 4.59565 0.797021 7.15472C0.570354 8.39685 0.418488 9.51998 0.330088 10.591C0.126088 13.0673 0.310821 15.2592 0.895621 17.2901C1.46455 19.2701 2.45962 20.6856 3.93749 21.6149C4.31489 21.8518 4.79542 22.0229 5.26235 22.1884C5.49582 22.2711 5.72022 22.3527 5.91629 22.4389V26.4395C5.91629 26.9631 6.34015 27.387 6.86375 27.387C7.11082 27.387 7.34769 27.2907 7.52449 27.1184L11.2158 23.528C11.3767 23.3444 11.3767 23.3444 11.5422 23.341C12.8036 23.3161 14.0922 23.2673 15.3728 23.1982C16.9244 23.1132 18.7218 22.9636 20.415 22.2575C21.9643 21.6104 23.0954 20.5836 23.7742 19.2066C24.4826 17.7695 24.9042 16.2123 25.0617 14.4477C25.3382 11.3447 25.141 8.65185 24.4599 6.21632ZM18.0328 18.0257C17.6622 18.632 17.1068 19.0513 16.454 19.3233C15.9769 19.5228 15.4896 19.4809 15.0192 19.2814C11.0707 17.6109 7.97555 14.977 5.92875 11.1928C5.50715 10.4131 5.21362 9.56418 4.87702 8.74025C4.80789 8.57025 4.81355 8.37192 4.78295 8.18718C4.81242 6.85552 5.83355 6.10638 6.86489 5.87972C7.25929 5.79245 7.60835 5.93185 7.90075 6.21178C8.70995 6.98472 9.35029 7.88005 9.83195 8.88418C10.0428 9.32505 9.94755 9.71492 9.58829 10.0425C9.51462 10.1105 9.43642 10.1739 9.35596 10.234C8.53656 10.8505 8.41642 11.3163 8.85275 12.2445C9.59622 13.8233 10.8304 14.8829 12.4273 15.5403C12.8478 15.7137 13.2444 15.6275 13.5663 15.2864C13.6094 15.2411 13.6581 15.1969 13.6898 15.1447C14.32 14.0941 15.2323 14.1984 16.0755 14.7979C16.6297 15.1912 17.1669 15.606 17.7154 16.0072C18.5473 16.6203 18.5405 17.1961 18.0328 18.0257ZM13.2954 7.14905C13.0835 7.14905 12.8704 7.16605 12.6619 7.20118C12.3083 7.26125 11.9751 7.02212 11.9162 6.66852C11.8572 6.31605 12.0952 5.98172 12.4488 5.92278C12.7265 5.87745 13.0121 5.85365 13.2954 5.85365C16.1004 5.85365 18.383 8.13618 18.383 10.9412C18.383 11.2257 18.3592 11.5113 18.3127 11.7889C18.2594 12.1051 17.9852 12.3295 17.6746 12.3295C17.6395 12.3295 17.6032 12.3273 17.567 12.3205C17.2145 12.2604 16.9765 11.9272 17.0354 11.5747C17.0706 11.3685 17.0876 11.1554 17.0876 10.9423C17.0876 8.85018 15.3864 7.14905 13.2954 7.14905ZM16.1163 11.3583C16.1163 11.7153 15.8262 12.0054 15.4692 12.0054C15.1122 12.0054 14.822 11.7153 14.822 11.3583C14.822 10.2873 13.9505 9.41572 12.8795 9.41572C12.5225 9.41572 12.2324 9.12558 12.2324 8.76858C12.2324 8.41158 12.5225 8.12145 12.8795 8.12145C14.6634 8.12032 16.1163 9.57325 16.1163 11.3583ZM20.4751 12.1482C20.4071 12.4497 20.1408 12.6525 19.8438 12.6525C19.7962 12.6525 19.7475 12.6469 19.6999 12.6367C19.3508 12.5573 19.1321 12.2105 19.2114 11.8626C19.3055 11.4489 19.3531 11.0217 19.3531 10.5933C19.3531 7.44485 16.7918 4.88238 13.6422 4.88238C13.2127 4.88238 12.7866 4.92998 12.3729 5.02405C12.0261 5.10452 11.677 4.88465 11.5988 4.53558C11.5195 4.18652 11.7382 3.83972 12.0873 3.76152C12.595 3.64478 13.1186 3.58698 13.6445 3.58698C17.5069 3.58698 20.6496 6.72972 20.6496 10.5921C20.6496 11.118 20.5907 11.6416 20.4751 12.1482Z" fill="white"/>
</svg>
