<svg width="43" height="47" viewBox="0 0 43 47" fill="none" xmlns="http://www.w3.org/2000/svg">
<path d="M41.1941 10.8084C40.417 8.0361 38.8797 5.84141 36.6243 4.28898C33.7778 2.32801 30.5038 1.63255 27.6764 1.21072C23.764 0.627368 20.2202 0.54566 16.8455 0.957996C13.6798 1.34563 11.297 1.96508 9.12131 2.96457C4.85924 4.92173 2.30162 8.0912 1.52066 12.3818C1.14063 14.4643 0.886005 16.3474 0.737792 18.1431C0.395763 22.2949 0.70549 25.9698 1.68597 29.3749C2.63985 32.6945 4.3082 35.0678 6.78601 36.6259C7.41876 37.0231 8.22443 37.31 9.0073 37.5874C9.39873 37.7261 9.77496 37.8629 10.1037 38.0074V44.7149C10.1037 45.5928 10.8144 46.3035 11.6922 46.3035C12.1065 46.3035 12.5036 46.1419 12.8 45.8531L18.9888 39.8334C19.2587 39.5256 19.2587 39.5256 19.5361 39.5199C21.651 39.4781 23.8115 39.3964 25.9586 39.2805C28.56 39.1379 31.5736 38.8871 34.4125 37.7033C37.01 36.6183 38.9063 34.8968 40.0445 32.5881C41.2321 30.1787 41.939 27.5679 42.2031 24.6093C42.6668 19.4067 42.3361 14.8919 41.1941 10.8084ZM30.4183 30.6081C29.797 31.6247 28.8659 32.3278 27.7714 32.7838C26.9714 33.1182 26.1544 33.0479 25.3658 32.7135C18.7456 29.9127 13.5563 25.4967 10.1246 19.152C9.41773 17.8447 8.92559 16.4215 8.36124 15.0401C8.24533 14.7551 8.25483 14.4225 8.20353 14.1128C8.25293 11.8801 9.96498 10.6241 11.6941 10.2441C12.3554 10.0978 12.9406 10.3315 13.4309 10.8008C14.7876 12.0967 15.8612 13.5979 16.6687 15.2814C17.0222 16.0206 16.8626 16.6742 16.2602 17.2234C16.1367 17.3374 16.0056 17.4438 15.8707 17.5445C14.4969 18.5782 14.2954 19.3592 15.027 20.9154C16.2735 23.5623 18.3428 25.339 21.0201 26.4411C21.7251 26.7318 22.3901 26.5874 22.9298 26.0154C23.002 25.9394 23.0837 25.8653 23.1369 25.7779C24.1934 24.0165 25.723 24.1913 27.1367 25.1965C28.0659 25.8558 28.9666 26.5513 29.8863 27.2239C31.281 28.2519 31.2696 29.2172 30.4183 30.6081ZM22.4756 12.3723C22.1203 12.3723 21.7631 12.4008 21.4135 12.4597C20.8206 12.5604 20.262 12.1595 20.1631 11.5666C20.0643 10.9756 20.4634 10.4151 21.0562 10.3163C21.5218 10.2403 22.0006 10.2004 22.4756 10.2004C27.1785 10.2004 31.0055 14.0273 31.0055 18.7302C31.0055 19.2071 30.9656 19.686 30.8877 20.1515C30.7984 20.6817 30.3385 21.0579 29.8179 21.0579C29.759 21.0579 29.6982 21.0541 29.6374 21.0427C29.0464 20.942 28.6474 20.3834 28.7462 19.7924C28.8051 19.4466 28.8336 19.0893 28.8336 18.7321C28.8336 15.2244 25.9814 12.3723 22.4756 12.3723ZM27.2051 19.4295C27.2051 20.028 26.7187 20.5145 26.1202 20.5145C25.5216 20.5145 25.0352 20.028 25.0352 19.4295C25.0352 17.6338 23.5739 16.1726 21.7783 16.1726C21.1797 16.1726 20.6933 15.6861 20.6933 15.0876C20.6933 14.489 21.1797 14.0026 21.7783 14.0026C24.7691 14.0007 27.2051 16.4367 27.2051 19.4295ZM34.5132 20.7539C34.3992 21.2593 33.9526 21.5995 33.4548 21.5995C33.375 21.5995 33.2933 21.59 33.2135 21.5729C32.6282 21.4398 32.2615 20.8584 32.3945 20.275C32.5522 19.5815 32.632 18.8651 32.632 18.1469C32.632 12.8682 28.3376 8.57195 23.0571 8.57195C22.3369 8.57195 21.6225 8.65175 20.9289 8.80947C20.3475 8.94438 19.7622 8.57574 19.6311 7.99049C19.4981 7.40524 19.8648 6.82379 20.4501 6.69268C21.3013 6.49697 22.1792 6.40006 23.0609 6.40006C29.5366 6.40006 34.8058 11.6692 34.8058 18.145C34.8058 19.0266 34.707 19.9045 34.5132 20.7539Z" fill="#B8C0BC"/>
<path d="M41.1941 10.8084C40.417 8.0361 38.8797 5.84141 36.6243 4.28898C33.7778 2.32801 30.5038 1.63255 27.6764 1.21072C23.764 0.627368 20.2202 0.54566 16.8455 0.957996C13.6798 1.34563 11.297 1.96508 9.12131 2.96457C4.85924 4.92173 2.30162 8.0912 1.52066 12.3818C1.14063 14.4643 0.886005 16.3474 0.737792 18.1431C0.395763 22.2949 0.70549 25.9698 1.68597 29.3749C2.63985 32.6945 4.3082 35.0678 6.78601 36.6259C7.41876 37.0231 8.22443 37.31 9.0073 37.5874C9.39873 37.7261 9.77496 37.8629 10.1037 38.0074V44.7149C10.1037 45.5928 10.8144 46.3035 11.6922 46.3035C12.1065 46.3035 12.5036 46.1419 12.8 45.8531L18.9888 39.8334C19.2587 39.5256 19.2587 39.5256 19.5361 39.5199C21.651 39.4781 23.8115 39.3964 25.9586 39.2805C28.56 39.1379 31.5736 38.8871 34.4125 37.7033C37.01 36.6183 38.9063 34.8968 40.0445 32.5881C41.2321 30.1787 41.939 27.5679 42.2031 24.6093C42.6668 19.4067 42.3361 14.8919 41.1941 10.8084ZM30.4183 30.6081C29.797 31.6247 28.8659 32.3278 27.7714 32.7838C26.9714 33.1182 26.1544 33.0479 25.3658 32.7135C18.7456 29.9127 13.5563 25.4967 10.1246 19.152C9.41773 17.8447 8.92559 16.4215 8.36124 15.0401C8.24533 14.7551 8.25483 14.4225 8.20353 14.1128C8.25293 11.8801 9.96498 10.6241 11.6941 10.2441C12.3554 10.0978 12.9406 10.3315 13.4309 10.8008C14.7876 12.0967 15.8612 13.5979 16.6687 15.2814C17.0222 16.0206 16.8626 16.6742 16.2602 17.2234C16.1367 17.3374 16.0056 17.4438 15.8707 17.5445C14.4969 18.5782 14.2954 19.3592 15.027 20.9154C16.2735 23.5623 18.3428 25.339 21.0201 26.4411C21.7251 26.7318 22.3901 26.5874 22.9298 26.0154C23.002 25.9394 23.0837 25.8653 23.1369 25.7779C24.1934 24.0165 25.723 24.1913 27.1367 25.1965C28.0659 25.8558 28.9666 26.5513 29.8863 27.2239C31.281 28.2519 31.2696 29.2172 30.4183 30.6081ZM22.4756 12.3723C22.1203 12.3723 21.7631 12.4008 21.4135 12.4597C20.8206 12.5604 20.262 12.1595 20.1631 11.5666C20.0643 10.9756 20.4634 10.4151 21.0562 10.3163C21.5218 10.2403 22.0006 10.2004 22.4756 10.2004C27.1785 10.2004 31.0055 14.0273 31.0055 18.7302C31.0055 19.2071 30.9656 19.686 30.8877 20.1515C30.7984 20.6817 30.3385 21.0579 29.8179 21.0579C29.759 21.0579 29.6982 21.0541 29.6374 21.0427C29.0464 20.942 28.6474 20.3834 28.7462 19.7924C28.8051 19.4466 28.8336 19.0893 28.8336 18.7321C28.8336 15.2244 25.9814 12.3723 22.4756 12.3723ZM27.2051 19.4295C27.2051 20.028 26.7187 20.5145 26.1202 20.5145C25.5216 20.5145 25.0352 20.028 25.0352 19.4295C25.0352 17.6338 23.5739 16.1726 21.7783 16.1726C21.1797 16.1726 20.6933 15.6861 20.6933 15.0876C20.6933 14.489 21.1797 14.0026 21.7783 14.0026C24.7691 14.0007 27.2051 16.4367 27.2051 19.4295ZM34.5132 20.7539C34.3992 21.2593 33.9526 21.5995 33.4548 21.5995C33.375 21.5995 33.2933 21.59 33.2135 21.5729C32.6282 21.4398 32.2615 20.8584 32.3945 20.275C32.5522 19.5815 32.632 18.8651 32.632 18.1469C32.632 12.8682 28.3376 8.57195 23.0571 8.57195C22.3369 8.57195 21.6225 8.65175 20.9289 8.80947C20.3475 8.94438 19.7622 8.57574 19.6311 7.99049C19.4981 7.40524 19.8648 6.82379 20.4501 6.69268C21.3013 6.49697 22.1792 6.40006 23.0609 6.40006C29.5366 6.40006 34.8058 11.6692 34.8058 18.145C34.8058 19.0266 34.707 19.9045 34.5132 20.7539Z" fill="#6B4CCC"/>
</svg>
