<svg width="43" height="43" viewBox="0 0 43 43" fill="none" xmlns="http://www.w3.org/2000/svg">
<path d="M21.8041 0.82312C10.2371 0.82312 0.826307 10.2339 0.826307 21.8009C0.826307 25.4127 1.75936 28.9644 3.52879 32.0983L0.860054 41.6204C0.772495 41.9332 0.857318 42.2688 1.08351 42.5014C1.25772 42.6811 1.49486 42.7787 1.73838 42.7787C1.81135 42.7787 1.88523 42.7696 1.95728 42.7522L11.8953 40.2905C14.9298 41.9195 18.3473 42.7787 21.8041 42.7787C33.3711 42.7787 42.7819 33.3679 42.7819 21.8009C42.7819 10.2339 33.3711 0.82312 21.8041 0.82312ZM32.3568 29.2033C31.9081 30.4456 29.7556 31.5793 28.7213 31.7316C27.7928 31.8675 26.618 31.9259 25.3284 31.5209C24.5467 31.2747 23.5434 30.9481 22.2583 30.4C16.8561 28.0961 13.3282 22.7248 13.0582 22.37C12.7891 22.0152 10.8592 19.487 10.8592 16.8702C10.8592 14.2535 12.2501 12.9665 12.7444 12.4339C13.2388 11.9012 13.8216 11.7681 14.181 11.7681C14.5403 11.7681 14.8988 11.7726 15.2134 11.7872C15.5445 11.8036 15.9887 11.6623 16.4256 12.7002C16.8743 13.7655 17.9515 16.3823 18.0846 16.6495C18.2196 16.9158 18.309 17.2268 18.1302 17.5816C17.9515 17.9364 17.8621 18.1581 17.5921 18.4691C17.3221 18.7801 17.0266 19.1623 16.784 19.4012C16.514 19.6666 16.234 19.954 16.5478 20.4866C16.8615 21.0193 17.9424 22.7604 19.544 24.1705C21.6007 25.9819 23.3364 26.5437 23.8745 26.81C24.4126 27.0764 24.7273 27.0317 25.0411 26.6769C25.3548 26.3212 26.3873 25.1236 26.7457 24.5919C27.1042 24.0601 27.4635 24.1477 27.9579 24.3255C28.4522 24.5025 31.1 25.7885 31.6381 26.0548C32.1762 26.3212 32.5356 26.4543 32.6706 26.676C32.8056 26.8967 32.8056 27.962 32.3568 29.2033Z" fill="#20CC61"/>
</svg>
