<svg width="24" height="24" viewBox="0 0 24 24" fill="none" xmlns="http://www.w3.org/2000/svg">
<path d="M11.9996 0.0390625C5.40499 0.0390625 0.039628 5.40442 0.039628 11.9991C0.039628 14.0583 0.571588 16.0831 1.58039 17.8699L0.0588679 23.2987C0.00894793 23.477 0.057308 23.6684 0.186268 23.801C0.285588 23.9034 0.420788 23.9591 0.559628 23.9591C0.601228 23.9591 0.643348 23.9539 0.684428 23.944L6.35035 22.5405C8.08039 23.4692 10.0288 23.9591 11.9996 23.9591C18.5943 23.9591 23.9596 18.5937 23.9596 11.9991C23.9596 5.40442 18.5943 0.0390625 11.9996 0.0390625ZM18.016 16.2194C17.7602 16.9276 16.533 17.574 15.9433 17.6608C15.4139 17.7383 14.7442 17.7716 14.0089 17.5407C13.5633 17.4003 12.9913 17.2141 12.2586 16.9016C9.17863 15.5881 7.16727 12.5258 7.01335 12.3235C6.85995 12.1213 5.75963 10.6798 5.75963 9.18794C5.75963 7.69606 6.55263 6.96234 6.83447 6.65866C7.11631 6.35498 7.44859 6.27906 7.65347 6.27906C7.85835 6.27906 8.06271 6.28166 8.24211 6.28998C8.43087 6.29934 8.68411 6.21874 8.93319 6.8105C9.18903 7.41786 9.80315 8.90974 9.87907 9.0621C9.95603 9.21394 10.007 9.39126 9.90507 9.59354C9.80315 9.79582 9.75219 9.92218 9.59827 10.0995C9.44435 10.2768 9.27587 10.4947 9.13755 10.6309C8.98363 10.7823 8.82399 10.9461 9.00287 11.2497C9.18175 11.5534 9.79795 12.5461 10.7111 13.35C11.8837 14.3827 12.8732 14.7031 13.18 14.8549C13.4868 15.0067 13.6662 14.9813 13.8451 14.779C14.024 14.5762 14.6126 13.8934 14.817 13.5903C15.0213 13.2871 15.2262 13.337 15.5081 13.4384C15.7899 13.5393 17.2995 14.2725 17.6063 14.4243C17.9131 14.5762 18.118 14.6521 18.1949 14.7785C18.2719 14.9043 18.2719 15.5117 18.016 16.2194Z" fill="white"/>
</svg>
