<svg width="50" height="35" viewBox="0 0 50 35" fill="none" xmlns="http://www.w3.org/2000/svg">
<g clip-path="url(#clip0_1670_8258)">
<path d="M48.3457 5.39352C47.7783 3.28635 46.1165 1.62493 44.0088 1.05761C40.1583 0.00402832 24.7562 0.00402832 24.7562 0.00402832C24.7562 0.00402832 9.35405 0.00402832 5.50353 1.01709C3.4364 1.58441 1.73406 3.28635 1.16662 5.39352C0.15332 9.24316 0.15332 17.2261 0.15332 17.2261C0.15332 17.2261 0.15332 25.2495 1.16662 29.0587C1.73406 31.1658 3.39587 32.8273 5.50353 33.3946C9.39459 34.4482 24.7562 34.4482 24.7562 34.4482C24.7562 34.4482 40.1583 34.4482 44.0088 33.4351C46.1165 32.8678 47.7783 31.2064 48.3457 29.0992C49.359 25.2496 49.359 17.2666 49.359 17.2666C49.359 17.2666 49.3995 9.24316 48.3457 5.39352Z" fill="#FF0000"/>
<path d="M31.6241 17.8275C32.0863 17.5614 32.0863 16.8944 31.6241 16.6282L20.8947 10.45C20.4334 10.1844 19.8574 10.5174 19.8574 11.0497V23.4061C19.8574 23.9384 20.4334 24.2713 20.8947 24.0057L31.6241 17.8275Z" fill="white"/>
</g>
<defs>
<clipPath id="clip0_1670_8258">
<rect width="49.2055" height="34.4438" fill="white" transform="translate(0.142578)"/>
</clipPath>
</defs>
</svg>
