<svg width="40" height="28" viewBox="0 0 40 28" fill="none" xmlns="http://www.w3.org/2000/svg">
<path fill-rule="evenodd" clip-rule="evenodd" d="M35.6509 0.858431C37.3642 1.31961 38.7151 2.67021 39.1764 4.38316C40.0331 7.5126 40.0001 14.035 40.0001 14.035C40.0001 14.035 40.0001 20.5245 39.1764 23.6539C38.7151 25.3669 37.3642 26.7175 35.6509 27.1786C32.5207 28.0022 20.0001 28.0022 20.0001 28.0022C20.0001 28.0022 7.51238 28.0022 4.34927 27.1457C2.63592 26.6845 1.28501 25.3339 0.823726 23.621C0 20.5245 0 14.0021 0 14.0021C0 14.0021 0 7.5126 0.823726 4.38316C1.28501 2.67021 2.66887 1.28667 4.34927 0.825489C7.47943 0.00195312 20.0001 0.00195312 20.0001 0.00195312C20.0001 0.00195312 32.5207 0.00195312 35.6509 0.858431ZM25.579 13.5157C25.9548 13.7321 25.9548 14.2743 25.579 14.4906L16.8569 19.513C16.4819 19.7289 16.0137 19.4582 16.0137 19.0255V8.9808C16.0137 8.54807 16.4819 8.2774 16.8569 8.49333L25.579 13.5157Z" fill="white"/>
</svg>
